<svg xmlns="http://www.w3.org/2000/svg" width="16" height="16" viewBox="0 0 16 16">
  <path id="dribbble" d="M8,0a8,8,0,1,0,8,8A8,8,0,0,0,8,0Zm6.47,7.425a20.73,20.73,0,0,0-4.282.284q-.247-.593-.5-1.137c.106-.049.211-.1.314-.151a9.508,9.508,0,0,0,3.107-2.437A6.432,6.432,0,0,1,14.47,7.425ZM12.038,2.912A8.052,8.052,0,0,1,9.016,5.231c-.141-.266-.28-.519-.415-.756A29.3,29.3,0,0,0,6.758,1.623,6.565,6.565,0,0,1,8,1.5,6.446,6.446,0,0,1,12.038,2.912Zm-8.63.5A6.5,6.5,0,0,1,5.244,2.115,27.218,27.218,0,0,1,7.312,5.253c.093.165.189.338.285.517a15.007,15.007,0,0,1-2.021.467,19.359,19.359,0,0,1-3.888.218A6.454,6.454,0,0,1,3.407,3.407ZM1.5,8c0-.015,0-.031,0-.046.278.015.631.027,1.043.027A20.6,20.6,0,0,0,5.78,7.729a16.1,16.1,0,0,0,2.5-.6q.206.437.41.911A13.385,13.385,0,0,0,5.959,9.088a9.425,9.425,0,0,0-3.236,2.7A6.447,6.447,0,0,1,1.5,8Zm2.257,4.922A9.031,9.031,0,0,1,9.251,9.446a23.718,23.718,0,0,1,1.18,4.58,6.511,6.511,0,0,1-6.669-1.1Zm8.831-.33a6.585,6.585,0,0,1-.763.655,25.4,25.4,0,0,0-1.089-4.1,19.484,19.484,0,0,1,3.688-.212A6.446,6.446,0,0,1,12.593,12.593Z" fill="#666"/>
</svg>
