<svg id="linked" xmlns="http://www.w3.org/2000/svg" width="16.664" height="16.391" viewBox="0 0 16.664 16.391">
  <path id="Path_3" data-name="Path 3" d="M2.238,4.2h0a2.228,2.228,0,0,0-1.578.65A2.2,2.2,0,0,0,0,6.417a2.221,2.221,0,0,0,.671,1.6,2.176,2.176,0,0,0,1.547.628h.049A2.224,2.224,0,0,0,2.238,4.2Z" transform="translate(0 -4.195)" fill="#666"/>
  <path id="Path_4" data-name="Path 4" d="M11.591,157.941H9.346a.824.824,0,0,0-.81.835v9.719a.843.843,0,0,0,.833.831h2.222a.835.835,0,0,0,.833-.814v-9.737A.844.844,0,0,0,11.591,157.941Z" transform="translate(-8.258 -152.937)" fill="#666"/>
  <path id="Path_5" data-name="Path 5" d="M177.925,149.408h-.585a3.745,3.745,0,0,0-2.784,1.218v-.385a.6.6,0,0,0-.555-.555h-2.777a.569.569,0,0,0-.555.521V160.57a.546.546,0,0,0,.555.5h3.055a.546.546,0,0,0,.555-.5v-5.987a1.562,1.562,0,0,1,2.677-1.158,1.528,1.528,0,0,1,.378,1.135v5.957a.6.6,0,0,0,.555.555h2.777a.6.6,0,0,0,.555-.555v-7.168A3.856,3.856,0,0,0,177.925,149.408Z" transform="translate(-165.113 -144.682)" fill="#666"/>
</svg>
