<svg xmlns="http://www.w3.org/2000/svg" width="50" height="50" viewBox="0 0 50 50">
  <g id="logo" transform="translate(0 -0.115)">
    <g id="Rectangle_10" data-name="Rectangle 10" transform="translate(0 0.115)" fill="none" stroke="#000" stroke-width="1">
      <rect width="50" height="50" stroke="none"/>
      <rect x="0.5" y="0.5" width="49" height="49" fill="none"/>
    </g>
    <g id="Group_627" data-name="Group 627" transform="translate(-401.763 -299.32)">
      <path id="Path_255" data-name="Path 255" d="M424.073,335.737l-.112.443h-9.2l.072-.408.415-.035a2.828,2.828,0,0,0,1.9-.715,3.7,3.7,0,0,0,.906-2.044l3.057-17.34a2.857,2.857,0,0,0-.184-2.044,1.985,1.985,0,0,0-1.645-.716l-.4-.034.073-.408h11.686a11.371,11.371,0,0,1,3.442.477,6.868,6.868,0,0,1,2.474,1.328,4.627,4.627,0,0,1,1.374,2.061,5.439,5.439,0,0,1,.142,2.675,6.278,6.278,0,0,1-1.175,2.691,8.255,8.255,0,0,1-2.333,2.095,11.848,11.848,0,0,1-3.276,1.346,16.047,16.047,0,0,1-4.012.477h-4.132l-1.3,7.359a2.853,2.853,0,0,0,.185,2.043,1.979,1.979,0,0,0,1.645.716Zm-.762-11.14h4.171a6.4,6.4,0,0,0,4.324-1.545,6.765,6.765,0,0,0,2.243-4.093,5.423,5.423,0,0,0-.556-4.024,3.4,3.4,0,0,0-3.049-1.511h-5.163Z"/>
    </g>
  </g>
</svg>
