<svg xmlns="http://www.w3.org/2000/svg" width="1020" height="204" viewBox="0 0 1020 204">
  <g id="process" transform="translate(-370.287 -1553.125)">
    <g id="Group_66" data-name="Group 66" transform="translate(370 1553)">
      <path id="Path_28" data-name="Path 28" d="M0,0H979.483" transform="translate(26.919 67.797)" fill="none" stroke="#707070" stroke-width="2"/>
      <circle id="Ellipse_2" data-name="Ellipse 2" cx="67.5" cy="67.5" r="67.5" transform="translate(221.287 0.125)" fill="#fff"/>
      <circle id="Ellipse_6" data-name="Ellipse 6" cx="67.5" cy="67.5" r="67.5" transform="translate(0.287 0.125)" fill="#fff"/>
      <g id="Group_64" data-name="Group 64" transform="translate(260.974 34.589)">
        <g id="Group_47" data-name="Group 47" transform="translate(38.824)">
          <g id="Group_46" data-name="Group 46" transform="translate(0)">
            <path id="Path_71" data-name="Path 71" d="M324.634,0h-.024a1.31,1.31,0,1,0,0,2.621h.024a1.31,1.31,0,0,0,0-2.621Z" transform="translate(-323.3 0)"/>
          </g>
        </g>
        <g id="Group_49" data-name="Group 49" transform="translate(8.671 8.517)">
          <g id="Group_48" data-name="Group 48">
            <path id="Path_72" data-name="Path 72" d="M127.508,65H94.488a1.31,1.31,0,1,0,0,2.621h33.02a1.31,1.31,0,0,0,0-2.621Z" transform="translate(-93.178 -65)"/>
          </g>
        </g>
        <g id="Group_51" data-name="Group 51" transform="translate(8.663 16.772)">
          <g id="Group_50" data-name="Group 50">
            <path id="Path_73" data-name="Path 73" d="M127.453,128H94.425a1.31,1.31,0,1,0,0,2.621h33.028a1.31,1.31,0,0,0,0-2.621Z" transform="translate(-93.115 -128)"/>
          </g>
        </g>
        <g id="Group_53" data-name="Group 53" transform="translate(13.2 25.027)">
          <g id="Group_52" data-name="Group 52" transform="translate(0)">
            <path id="Path_74" data-name="Path 74" d="M132.426,191h-3.374a1.31,1.31,0,0,0,0,2.621h3.374a1.31,1.31,0,0,0,0-2.621Z" transform="translate(-127.742 -191)"/>
          </g>
        </g>
        <g id="Group_55" data-name="Group 55" transform="translate(8.663 25.027)">
          <g id="Group_54" data-name="Group 54">
            <path id="Path_75" data-name="Path 75" d="M94.444,191h-.018a1.31,1.31,0,1,0,0,2.621h.018a1.31,1.31,0,1,0,0-2.621Z" transform="translate(-93.115 -191)"/>
          </g>
        </g>
        <g id="Group_57" data-name="Group 57" transform="translate(8.663 33.74)">
          <g id="Group_56" data-name="Group 56">
            <path id="Path_76" data-name="Path 76" d="M98.962,257.5H94.425a1.31,1.31,0,1,0,0,2.621h4.537a1.31,1.31,0,1,0,0-2.621Z" transform="translate(-93.115 -257.501)"/>
          </g>
        </g>
        <g id="Group_59" data-name="Group 59" transform="translate(8.681 41.995)">
          <g id="Group_58" data-name="Group 58">
            <path id="Path_77" data-name="Path 77" d="M99.083,320.5H94.564a1.31,1.31,0,1,0,0,2.621h4.519a1.31,1.31,0,1,0,0-2.621Z" transform="translate(-93.254 -320.5)"/>
          </g>
        </g>
        <g id="Group_61" data-name="Group 61" transform="translate(32.207 54.709)">
          <g id="Group_60" data-name="Group 60" transform="translate(0)">
            <path id="Path_78" data-name="Path 78" d="M274.111,417.531a1.31,1.31,0,0,0-1.31,1.31v.014a1.31,1.31,0,1,0,2.621,0v-.014A1.31,1.31,0,0,0,274.111,417.531Z" transform="translate(-272.801 -417.531)"/>
          </g>
        </g>
        <g id="Group_63" data-name="Group 63" transform="translate(0 0)">
          <g id="Group_62" data-name="Group 62">
            <path id="Path_79" data-name="Path 79" d="M86.63,64.853l-6.692-6.692V1.312A1.31,1.31,0,0,0,78.628,0H72.79a1.31,1.31,0,1,0,0,2.621h4.527V55.54L73.25,51.472c.225-.262.445-.529.654-.805a16.765,16.765,0,1,0-26.767,0A16.9,16.9,0,0,0,55.7,56.629a1.31,1.31,0,1,0,.752-2.51,14.145,14.145,0,1,1,8.135,0,1.31,1.31,0,1,0,.752,2.51,16.829,16.829,0,0,0,6.052-3.309l5.926,5.926v5.222H29.623V2.623h31.7a1.31,1.31,0,0,0,0-2.621H28.312A1.31,1.31,0,0,0,27,1.312V65.779a1.31,1.31,0,0,0,1.31,1.31H78.628a1.31,1.31,0,0,0,1.31-1.31V61.867l4.839,4.839a1.31,1.31,0,0,0,1.853-1.853Z" transform="translate(-27.002 -0.002)"/>
          </g>
        </g>
      </g>
      <path id="Path_80" data-name="Path 80" d="M112.058,55a1.111,1.111,0,0,0-.827-.776l-6.82-1.541-1.541-6.82A1.112,1.112,0,0,0,101,45.324l-7.844,7.845A31.738,31.738,0,1,0,103.93,63.946l7.847-7.847a1.114,1.114,0,0,0,.28-1.1Zm-5.791,25.345A29.511,29.511,0,1,1,91.53,54.8l-3.6,3.6a1.1,1.1,0,0,0-.086.111A24.524,24.524,0,1,0,98.585,69.268a1.108,1.108,0,0,0,.116-.095l3.6-3.6a29.411,29.411,0,0,1,3.964,14.776ZM95.944,69.082a22.234,22.234,0,1,1-7.928-7.936l1.172,5.192-1.124,1.124a17.188,17.188,0,1,0,1.574,1.574l1.124-1.124ZM81.538,80.347a4.8,4.8,0,1,1-2.286-4.073L75.965,79.56a1.113,1.113,0,1,0,1.547,1.6l.027-.027,3.286-3.286A4.749,4.749,0,0,1,81.538,80.347Zm-.684-5.675a7.04,7.04,0,1,0,1.573,1.574l5.633-5.633a14.951,14.951,0,1,1-1.573-1.574ZM101.74,62.986l-4.177,4.176-.626-.141-.024-.006L91.339,65.76l-1.4-6.221,11.213-11.214,1.251,5.536a1.113,1.113,0,0,0,.841.841l5.536,1.251Z" transform="translate(-11.051 -11.079)"/>
    </g>
    <text id="Goal" transform="translate(416.287 1751.125)" font-size="20" font-family="HelveticaNeue, Helvetica Neue"><tspan x="0" y="0">Goal</tspan></text>
    <text id="Research" transform="translate(615.287 1751.125)" font-size="20" font-family="HelveticaNeue, Helvetica Neue"><tspan x="0" y="0">Research</tspan></text>
    <g id="Group_643" data-name="Group 643" transform="translate(-221)">
      <circle id="Ellipse_5" data-name="Ellipse 5" cx="67.5" cy="67.5" r="67.5" transform="translate(1255.287 1553.125)" fill="#fff"/>
      <text id="Edit" transform="translate(1304.287 1752.125)" font-size="21" font-family="HelveticaNeue, Helvetica Neue"><tspan x="0" y="0">Edit</tspan></text>
      <g id="Group_645" data-name="Group 645" transform="translate(1289.287 1587.125)">
        <path id="Path_260" data-name="Path 260" d="M62,16.487a1.075,1.075,0,0,0,1.075-1.075v-4.66H66.3a1.075,1.075,0,0,0,1.075-1.075v-8.6A1.075,1.075,0,0,0,66.3,0H57.7a1.075,1.075,0,0,0-1.075,1.075V4.3H10.752V1.075A1.075,1.075,0,0,0,9.677,0h-8.6A1.075,1.075,0,0,0,0,1.075v8.6a1.075,1.075,0,0,0,1.075,1.075H4.3V56.627H1.075A1.075,1.075,0,0,0,0,57.7v8.6a1.075,1.075,0,0,0,1.075,1.075h8.6A1.075,1.075,0,0,0,10.752,66.3V63.078H56.627V66.3A1.075,1.075,0,0,0,57.7,67.379h8.6A1.075,1.075,0,0,0,67.379,66.3V57.7A1.075,1.075,0,0,0,66.3,56.627H63.078V19.713a1.075,1.075,0,1,0-2.15,0V56.627H57.7A1.075,1.075,0,0,0,56.627,57.7v3.226H10.752V57.7a1.075,1.075,0,0,0-1.075-1.075H6.451V10.752H9.677a1.075,1.075,0,0,0,1.075-1.075V6.451H56.627V9.677A1.075,1.075,0,0,0,57.7,10.752h3.226v4.66A1.075,1.075,0,0,0,62,16.487Zm-3.226,42.29h6.451v6.451H58.777ZM8.6,65.229H2.15V58.777H8.6ZM8.6,8.6H2.15V2.15H8.6ZM58.777,2.15h6.451V8.6H58.777Z"/>
        <path id="Path_261" data-name="Path 261" d="M138.707,101.08A1.075,1.075,0,0,0,137.632,100H101.075A1.075,1.075,0,0,0,100,101.08v18.277a1.075,1.075,0,0,0,1.075,1.075h36.557a1.075,1.075,0,0,0,1.075-1.075Zm-36.557,1.74,14.8,7.4-14.8,7.4Zm3.479-.664h27.447l-13.723,6.861Zm13.724,9.266,13.724,6.861H105.63Zm2.4-1.2,14.8-7.4v14.8Z" transform="translate(-85.664 -85.668)"/>
        <path id="Path_262" data-name="Path 262" d="M117.2,355H101.075a1.075,1.075,0,1,0,0,2.15H117.2a1.075,1.075,0,1,0,0-2.15Z" transform="translate(-85.664 -304.107)"/>
        <path id="Path_263" data-name="Path 263" d="M259.7,355H243.575a1.075,1.075,0,1,0,0,2.15H259.7a1.075,1.075,0,1,0,0-2.15Z" transform="translate(-207.735 -304.107)"/>
        <path id="Path_264" data-name="Path 264" d="M117.2,323.125H101.075a1.075,1.075,0,1,0,0,2.15H117.2a1.075,1.075,0,1,0,0-2.15Z" transform="translate(-85.664 -276.802)"/>
        <path id="Path_265" data-name="Path 265" d="M259.7,323.125H243.575a1.075,1.075,0,0,0,0,2.15H259.7a1.075,1.075,0,0,0,0-2.15Z" transform="translate(-207.735 -276.802)"/>
        <path id="Path_266" data-name="Path 266" d="M117.2,291.25H101.075a1.075,1.075,0,1,0,0,2.15H117.2a1.075,1.075,0,1,0,0-2.15Z" transform="translate(-85.664 -249.497)"/>
        <path id="Path_267" data-name="Path 267" d="M259.7,291.25H243.575a1.075,1.075,0,0,0,0,2.15H259.7a1.075,1.075,0,0,0,0-2.15Z" transform="translate(-207.735 -249.497)"/>
        <path id="Path_268" data-name="Path 268" d="M137.632,259.374H101.075a1.075,1.075,0,1,0,0,2.15h36.557a1.075,1.075,0,1,0,0-2.15Z" transform="translate(-85.664 -222.19)"/>
      </g>
    </g>
    <g id="Group_642" data-name="Group 642" transform="translate(221)">
      <circle id="Ellipse_4" data-name="Ellipse 4" cx="67.5" cy="67.5" r="67.5" transform="translate(1034.287 1553.125)" fill="#fff"/>
      <g id="Group_65" data-name="Group 65" transform="translate(1062.095 1587.589)">
        <path id="Path_81" data-name="Path 81" d="M-308.5,355.775V330.4a2.835,2.835,0,0,0-2.979-3.021h-35.752a2.835,2.835,0,0,0-2.98,3.021v36.25a2.835,2.835,0,0,0,2.98,3.021h35.752a2.835,2.835,0,0,0,2.979-3.021V355.775ZM-311.134,367h-36.439V330.052h36.439Z" transform="translate(368.334 -303.329)"/>
        <path id="Path_82" data-name="Path 82" d="M-286.306,362.406l13.594,6.948a2.725,2.725,0,0,0,1.511.3,2.854,2.854,0,0,0,3.021-3.021v-36.25a3.6,3.6,0,0,0-1.51-2.719,2.743,2.743,0,0,0-3.021,0l-13.594,6.948-6.042,3.021-16.615,8.156a3.172,3.172,0,0,0-1.511,2.719,3.173,3.173,0,0,0,1.511,2.719l16.615,8.156Zm15.6-32.037v36.539l-15.6-8.3v-19.93ZM-288.94,357.9l-19.042-9.26,19.042-9.26Z" transform="translate(346.142 -303.239)"/>
        <path id="Path_83" data-name="Path 83" d="M-368.573,273.569a21.372,21.372,0,0,0-21.372,21.373,21.372,21.372,0,0,0,21.372,21.373A21.373,21.373,0,0,0-347.2,294.942,21.373,21.373,0,0,0-368.573,273.569Zm0,40.159a18.787,18.787,0,0,1-18.786-18.786,18.786,18.786,0,0,1,18.786-18.786,18.786,18.786,0,0,1,18.787,18.786A18.787,18.787,0,0,1-368.573,313.728Z" transform="translate(389.945 -273.569)"/>
      </g>
      <text id="Design" transform="translate(1069.287 1751.125)" font-size="20" font-family="HelveticaNeue, Helvetica Neue"><tspan x="0" y="0">Design</tspan></text>
    </g>
    <g id="Group_644" data-name="Group 644" transform="translate(-442)">
      <circle id="Ellipse_5-2" data-name="Ellipse 5" cx="67.5" cy="67.5" r="67.5" transform="translate(1255.287 1553.125)" fill="#fff"/>
      <g id="Group_631" data-name="Group 631" transform="translate(701.864 1221.117)">
        <path id="Path_256" data-name="Path 256" d="M632.49,366.008c1.127.822,1.137,1.542.008,2.307-1.829,1.24-3.669,2.465-5.645,3.79.4.118.647.2.9.267a26.99,26.99,0,0,1,20.526,29.821c-1.23,9.334-6.249,16.182-14.505,20.672a8.286,8.286,0,0,0-.859.432c-3.117,2.21-6.614,2.614-10.344,2.554-8.25-.134-16.5-.042-24.756-.042-.257,0-.515.012-.77-.01a1.385,1.385,0,0,1,.011-2.766c.287-.027.578-.01.867-.009q11.8.03,23.6.065c7.682.034,13.836-3.146,18.69-8.955a23.626,23.626,0,0,0,5.164-11.543,24.175,24.175,0,0,0-18.759-27.585c-.238-.051-.482-.072-.906-.133l4.479,5.74c.138.177.277.354.413.532a1.1,1.1,0,0,1-.1,1.7,1.085,1.085,0,0,1-1.672-.295c-.936-1.183-1.861-2.375-2.79-3.564l-4.632-5.933c.314-.223.584-.423.863-.61q4.355-2.926,8.71-5.851c.258-.174.489-.39.732-.586Z" transform="translate(-5.907 0)"/>
        <path id="Path_257" data-name="Path 257" d="M588.423,423.888a54.224,54.224,0,0,1,1.383-6.359c3.03-8.866,9.113-14.682,18.022-17.554a5.079,5.079,0,0,1,.649-.178,1.4,1.4,0,0,1,1.712,1.022,1.356,1.356,0,0,1-.943,1.673c-.538.205-1.111.319-1.649.526-9.337,3.592-14.992,10.33-16.129,20.245-1.134,9.9,2.9,17.683,11.157,23.259a3.509,3.509,0,0,1,.932.789c-1.546,0-3.093.017-4.639-.02-.212,0-.431-.258-.625-.422a26.846,26.846,0,0,1-9.686-17.714c-.044-.345-.122-.685-.184-1.028Z" transform="translate(0 -27.234)"/>
        <path id="Path_258" data-name="Path 258" d="M819.413,633.436H799.919c1.494-.974,2.805-1.856,4.15-2.683a1.944,1.944,0,0,1,.94-.1q6.691-.01,13.381-.008h1.32l-2.389-2.233c-1.078-1.008-2.168-2-3.23-3.029a1.055,1.055,0,0,1-.051-1.623,1.035,1.035,0,0,1,1.555-.038c2.968,2.736,5.919,5.489,8.927,8.284-.244.26-.423.475-.626.664q-3.979,3.708-7.966,7.407c-.77.714-1.413.787-1.922.241s-.374-1.2.378-1.9q2.558-2.4,5.13-4.776Z" transform="translate(-170.615 -207.635)"/>
      </g>
      <text id="Prototype_test" data-name="Prototype test" transform="translate(1323.287 1752.125)" font-size="21" font-family="HelveticaNeue, Helvetica Neue"><tspan x="-66.318" y="0">Prototype test</tspan></text>
    </g>
  </g>
</svg>
