<svg width="1020" height="203" viewBox="0 0 1020 203" fill="none" xmlns="http://www.w3.org/2000/svg">
<path d="M26.632 67.672H1006.11" stroke="#707070" stroke-width="2"/>
<path d="M67.5 135C104.779 135 135 104.779 135 67.5C135 30.2208 104.779 0 67.5 0C30.2208 0 0 30.2208 0 67.5C0 104.779 30.2208 135 67.5 135Z" fill="white"/>
<path d="M100.72 43.796C100.665 43.6043 100.558 43.4311 100.413 43.2945C100.267 43.158 100.088 43.0632 99.893 43.02L93.073 41.479L91.532 34.659C91.4878 34.4653 91.3924 34.2871 91.256 34.1427C91.1195 33.9984 90.9468 33.8932 90.7559 33.8382C90.565 33.7832 90.3629 33.7803 90.1705 33.8298C89.9781 33.8794 89.8025 33.9796 89.662 34.12L81.818 41.965C75.1807 37.9584 67.3065 36.5198 59.6813 37.9207C52.0561 39.3216 45.2074 43.4651 40.4276 49.5691C35.6478 55.6732 33.2676 63.3157 33.7361 71.0544C34.2047 78.793 37.4896 86.0925 42.9709 91.5753C48.4522 97.0582 55.7507 100.345 63.4893 100.816C71.2278 101.286 78.8709 98.9084 84.9763 94.1303C91.0818 89.3522 95.2271 82.5046 96.6301 74.8798C98.0331 67.255 96.5967 59.3804 92.592 52.742L100.439 44.895C100.58 44.7536 100.68 44.5769 100.73 44.3833C100.779 44.1898 100.775 43.9866 100.719 43.795L100.72 43.796ZM94.929 69.141C94.9294 75.6384 92.7854 81.9542 88.8299 87.1088C84.8743 92.2633 79.3282 95.9683 73.052 97.6491C66.7758 99.3299 60.1203 98.8924 54.1181 96.4045C48.116 93.9166 43.1026 89.5175 39.8558 83.8895C36.609 78.2616 35.3103 71.7194 36.1611 65.278C37.012 58.8366 39.9649 52.856 44.5616 48.2641C49.1584 43.6722 55.1421 40.7257 61.5844 39.8817C68.0267 39.0376 74.5675 40.3432 80.192 43.596L76.592 47.196C76.561 47.2311 76.5323 47.2682 76.506 47.307C71.3044 44.6581 65.3286 43.9514 59.6526 45.3139C53.9766 46.6764 48.9728 50.0188 45.5405 54.7403C42.1082 59.4618 40.4726 65.2528 40.9277 71.0722C41.3827 76.8917 43.8986 82.358 48.023 86.4886C52.1475 90.6192 57.6101 93.1432 63.4288 93.6069C69.2476 94.0706 75.041 92.4436 79.7676 89.0184C84.4942 85.5931 87.8441 80.5943 89.215 74.9203C90.586 69.2464 89.8882 63.2695 87.247 58.064C87.2878 58.035 87.3265 58.0033 87.363 57.969L90.963 54.369C93.5646 58.8584 94.9322 63.9562 94.927 69.145L94.929 69.141ZM84.606 57.878C87.3389 62.5437 88.278 68.0453 87.2474 73.3533C86.2168 78.6614 83.2873 83.4119 79.007 86.716C74.7268 90.02 69.3892 91.651 63.9932 91.3038C58.5973 90.9566 53.5127 88.6549 49.6912 84.8296C45.8697 81.0042 43.5732 75.9174 43.2314 70.521C42.8897 65.1247 44.5261 59.7888 47.8344 55.5119C51.1428 51.235 55.8963 48.3102 61.2053 47.285C66.5144 46.2598 72.0151 47.2044 76.678 49.942L77.85 55.134L76.726 56.258C73.3731 53.3137 69.0066 51.7888 64.5498 52.0055C60.0929 52.2223 55.895 54.1638 52.8437 57.4196C49.7923 60.6753 48.1267 64.9901 48.199 69.4517C48.2713 73.9132 50.0758 78.1718 53.231 81.327C56.3862 84.4822 60.6448 86.2867 65.1063 86.359C69.5679 86.4313 73.8827 84.7657 77.1384 81.7143C80.3942 78.663 82.3357 74.4651 82.5525 70.0082C82.7692 65.5514 81.2443 61.1849 78.3 57.832L79.424 56.708L84.606 57.878ZM70.2 69.143C70.2035 70.206 69.8541 71.2401 69.2066 72.0831C68.559 72.9261 67.6499 73.5303 66.6219 73.8009C65.5939 74.0715 64.5052 73.9932 63.5265 73.5783C62.5478 73.1633 61.7345 72.4353 61.2142 71.5083C60.694 70.5813 60.4961 69.5079 60.6517 68.4563C60.8074 67.4047 61.3076 66.4346 62.0741 65.698C62.8406 64.9615 63.8299 64.5002 64.8868 64.3865C65.9437 64.2729 67.0084 64.5133 67.914 65.07L64.627 68.356C64.5186 68.4568 64.4315 68.5782 64.3706 68.713C64.3097 68.8479 64.2763 68.9936 64.2724 69.1415C64.2684 69.2894 64.294 69.4366 64.3477 69.5745C64.4013 69.7125 64.482 69.8383 64.5848 69.9447C64.6877 70.0511 64.8107 70.1359 64.9467 70.1941C65.0828 70.2524 65.2291 70.2829 65.377 70.284C65.525 70.2851 65.6717 70.2566 65.8085 70.2003C65.9454 70.144 66.0696 70.0609 66.174 69.956L66.201 69.929L69.487 66.643C69.9526 67.3938 70.1995 68.2596 70.2 69.143ZM69.516 63.468C68.0823 62.4292 66.3097 61.9688 64.5517 62.1785C62.7936 62.3882 61.1791 63.2526 60.0299 64.5995C58.8808 65.9463 58.2812 67.6768 58.3509 69.4459C58.4206 71.2151 59.1543 72.893 60.4059 74.1454C61.6574 75.3977 63.3349 76.1325 65.104 76.2033C66.8731 76.2741 68.6039 75.6757 69.9515 74.5273C71.2991 73.379 72.1646 71.7651 72.3754 70.0071C72.5862 68.2492 72.1269 66.4764 71.089 65.042L76.722 59.409C79.2456 62.3415 80.5342 66.1381 80.3169 70.0008C80.0997 73.8636 78.3935 77.4918 75.557 80.1228C72.7205 82.7538 68.9745 84.1829 65.1064 84.1096C61.2382 84.0363 57.549 82.4665 54.8142 79.7299C52.0794 76.9933 50.5118 73.3032 50.441 69.4349C50.3702 65.5667 51.8016 61.8217 54.4345 58.9868C57.0673 56.152 60.6966 54.4481 64.5594 54.2334C68.4223 54.0186 72.2181 55.3095 75.149 57.835L69.516 63.468ZM90.402 51.782L86.225 55.958L85.599 55.817L85.575 55.811L80.001 54.556L78.601 48.335L89.814 37.121L91.065 42.657C91.1113 42.8624 91.2149 43.0504 91.3637 43.1993C91.5126 43.3481 91.7006 43.4517 91.906 43.498L97.442 44.749L90.402 51.782Z" fill="black"/>
<path d="M58.24 196.22L58.74 198H59.94V190.48H53.68V192.08H58.24C58.2667 192.733 58.18 193.347 57.98 193.92C57.78 194.48 57.48 194.973 57.08 195.4C56.6933 195.813 56.2133 196.14 55.64 196.38C55.0667 196.62 54.4067 196.74 53.66 196.74C52.86 196.74 52.1533 196.587 51.54 196.28C50.94 195.96 50.4333 195.54 50.02 195.02C49.6067 194.487 49.2933 193.88 49.08 193.2C48.8667 192.507 48.76 191.787 48.76 191.04C48.76 190.28 48.8533 189.54 49.04 188.82C49.2267 188.087 49.5133 187.44 49.9 186.88C50.3 186.307 50.8067 185.847 51.42 185.5C52.0467 185.153 52.7933 184.98 53.66 184.98C54.1933 184.98 54.6933 185.047 55.16 185.18C55.64 185.3 56.0667 185.487 56.44 185.74C56.8133 185.993 57.1267 186.32 57.38 186.72C57.6333 187.107 57.8067 187.573 57.9 188.12H59.8C59.6667 187.28 59.4133 186.567 59.04 185.98C58.68 185.38 58.2267 184.887 57.68 184.5C57.1467 184.113 56.5333 183.833 55.84 183.66C55.16 183.473 54.4333 183.38 53.66 183.38C52.5267 183.38 51.5333 183.593 50.68 184.02C49.84 184.433 49.1333 184.993 48.56 185.7C48 186.407 47.5733 187.233 47.28 188.18C47 189.113 46.86 190.1 46.86 191.14C46.86 192.073 47.0133 192.973 47.32 193.84C47.6267 194.707 48.0733 195.473 48.66 196.14C49.2467 196.807 49.96 197.34 50.8 197.74C51.64 198.127 52.5933 198.32 53.66 198.32C54.5 198.32 55.3333 198.16 56.16 197.84C56.9867 197.507 57.68 196.967 58.24 196.22ZM63.6958 192.84C63.6958 192.213 63.7758 191.66 63.9358 191.18C64.1091 190.687 64.3424 190.273 64.6358 189.94C64.9291 189.607 65.2691 189.353 65.6558 189.18C66.0558 189.007 66.4758 188.92 66.9158 188.92C67.3558 188.92 67.7691 189.007 68.1558 189.18C68.5558 189.353 68.9024 189.607 69.1958 189.94C69.4891 190.273 69.7158 190.687 69.8758 191.18C70.0491 191.66 70.1358 192.213 70.1358 192.84C70.1358 193.467 70.0491 194.027 69.8758 194.52C69.7158 195 69.4891 195.407 69.1958 195.74C68.9024 196.06 68.5558 196.307 68.1558 196.48C67.7691 196.653 67.3558 196.74 66.9158 196.74C66.4758 196.74 66.0558 196.653 65.6558 196.48C65.2691 196.307 64.9291 196.06 64.6358 195.74C64.3424 195.407 64.1091 195 63.9358 194.52C63.7758 194.027 63.6958 193.467 63.6958 192.84ZM61.8958 192.84C61.8958 193.6 62.0024 194.307 62.2158 194.96C62.4291 195.613 62.7491 196.187 63.1758 196.68C63.6024 197.16 64.1291 197.54 64.7558 197.82C65.3824 198.087 66.1024 198.22 66.9158 198.22C67.7424 198.22 68.4624 198.087 69.0758 197.82C69.7024 197.54 70.2291 197.16 70.6558 196.68C71.0824 196.187 71.4024 195.613 71.6158 194.96C71.8291 194.307 71.9358 193.6 71.9358 192.84C71.9358 192.08 71.8291 191.373 71.6158 190.72C71.4024 190.053 71.0824 189.48 70.6558 189C70.2291 188.507 69.7024 188.12 69.0758 187.84C68.4624 187.56 67.7424 187.42 66.9158 187.42C66.1024 187.42 65.3824 187.56 64.7558 187.84C64.1291 188.12 63.6024 188.507 63.1758 189C62.7491 189.48 62.4291 190.053 62.2158 190.72C62.0024 191.373 61.8958 192.08 61.8958 192.84ZM83.1002 197.96C82.8068 198.133 82.4002 198.22 81.8802 198.22C81.4402 198.22 81.0868 198.1 80.8202 197.86C80.5668 197.607 80.4402 197.2 80.4402 196.64C79.9735 197.2 79.4268 197.607 78.8002 197.86C78.1868 198.1 77.5202 198.22 76.8002 198.22C76.3335 198.22 75.8868 198.167 75.4602 198.06C75.0468 197.953 74.6868 197.787 74.3802 197.56C74.0735 197.333 73.8268 197.04 73.6402 196.68C73.4668 196.307 73.3802 195.86 73.3802 195.34C73.3802 194.753 73.4802 194.273 73.6802 193.9C73.8802 193.527 74.1402 193.227 74.4602 193C74.7935 192.76 75.1668 192.58 75.5802 192.46C76.0068 192.34 76.4402 192.24 76.8802 192.16C77.3468 192.067 77.7868 192 78.2002 191.96C78.6268 191.907 79.0002 191.84 79.3202 191.76C79.6402 191.667 79.8935 191.54 80.0802 191.38C80.2668 191.207 80.3602 190.96 80.3602 190.64C80.3602 190.267 80.2868 189.967 80.1402 189.74C80.0068 189.513 79.8268 189.34 79.6002 189.22C79.3868 189.1 79.1402 189.02 78.8602 188.98C78.5935 188.94 78.3268 188.92 78.0602 188.92C77.3402 188.92 76.7402 189.06 76.2602 189.34C75.7802 189.607 75.5202 190.12 75.4802 190.88H73.7802C73.8068 190.24 73.9402 189.7 74.1802 189.26C74.4202 188.82 74.7402 188.467 75.1402 188.2C75.5402 187.92 75.9935 187.72 76.5002 187.6C77.0202 187.48 77.5735 187.42 78.1602 187.42C78.6268 187.42 79.0868 187.453 79.5402 187.52C80.0068 187.587 80.4268 187.727 80.8002 187.94C81.1735 188.14 81.4735 188.427 81.7002 188.8C81.9268 189.173 82.0402 189.66 82.0402 190.26V195.58C82.0402 195.98 82.0602 196.273 82.1002 196.46C82.1535 196.647 82.3135 196.74 82.5802 196.74C82.7268 196.74 82.9002 196.707 83.1002 196.64V197.96ZM80.3402 192.66C80.1268 192.82 79.8468 192.94 79.5002 193.02C79.1535 193.087 78.7868 193.147 78.4002 193.2C78.0268 193.24 77.6468 193.293 77.2602 193.36C76.8735 193.413 76.5268 193.507 76.2202 193.64C75.9135 193.773 75.6602 193.967 75.4602 194.22C75.2735 194.46 75.1802 194.793 75.1802 195.22C75.1802 195.5 75.2335 195.74 75.3402 195.94C75.4602 196.127 75.6068 196.28 75.7802 196.4C75.9668 196.52 76.1802 196.607 76.4202 196.66C76.6602 196.713 76.9135 196.74 77.1802 196.74C77.7402 196.74 78.2202 196.667 78.6202 196.52C79.0202 196.36 79.3468 196.167 79.6002 195.94C79.8535 195.7 80.0402 195.447 80.1602 195.18C80.2802 194.9 80.3402 194.64 80.3402 194.4V192.66ZM84.7823 183.72V198H86.4823V183.72H84.7823Z" fill="black"/>
<path d="M288.5 135C325.779 135 356 104.779 356 67.5C356 30.2208 325.779 0 288.5 0C251.221 0 221 30.2208 221 67.5C221 104.779 251.221 135 288.5 135Z" fill="white"/>
<path d="M298.16 34.002H298.136C297.788 34.002 297.455 34.1401 297.209 34.3858C296.964 34.6316 296.826 34.9649 296.826 35.3125C296.826 35.6601 296.964 35.9934 297.209 36.2392C297.455 36.4849 297.788 36.623 298.136 36.623H298.16C298.508 36.623 298.841 36.4849 299.087 36.2392C299.332 35.9934 299.47 35.6601 299.47 35.3125C299.47 34.9649 299.332 34.6316 299.087 34.3858C298.841 34.1401 298.508 34.002 298.16 34.002Z" fill="black"/>
<path d="M301.003 42.519H267.983C267.635 42.519 267.302 42.6571 267.056 42.9028C266.811 43.1486 266.673 43.4819 266.673 43.8295C266.673 44.1771 266.811 44.5104 267.056 44.7562C267.302 45.0019 267.635 45.14 267.983 45.14H301.003C301.351 45.14 301.684 45.0019 301.93 44.7562C302.175 44.5104 302.313 44.1771 302.313 43.8295C302.313 43.4819 302.175 43.1486 301.93 42.9028C301.684 42.6571 301.351 42.519 301.003 42.519Z" fill="black"/>
<path d="M301.003 50.774H267.975C267.627 50.774 267.294 50.9121 267.048 51.1578C266.803 51.4036 266.665 51.7369 266.665 52.0845C266.665 52.4321 266.803 52.7654 267.048 53.0112C267.294 53.2569 267.627 53.395 267.975 53.395H301.003C301.351 53.395 301.684 53.2569 301.93 53.0112C302.175 52.7654 302.314 52.4321 302.314 52.0845C302.314 51.7369 302.175 51.4036 301.93 51.1578C301.684 50.9121 301.351 50.774 301.003 50.774Z" fill="black"/>
<path d="M275.886 59.029H272.512C272.164 59.029 271.831 59.1671 271.585 59.4128C271.34 59.6586 271.202 59.9919 271.202 60.3395C271.202 60.6871 271.34 61.0204 271.585 61.2662C271.831 61.5119 272.164 61.65 272.512 61.65H275.886C276.234 61.65 276.567 61.5119 276.813 61.2662C277.058 61.0204 277.197 60.6871 277.197 60.3395C277.197 59.9919 277.058 59.6586 276.813 59.4128C276.567 59.1671 276.234 59.029 275.886 59.029Z" fill="black"/>
<path d="M267.994 59.029H267.976C267.628 59.029 267.295 59.1671 267.049 59.4128C266.804 59.6586 266.665 59.9919 266.665 60.3395C266.665 60.6871 266.804 61.0204 267.049 61.2662C267.295 61.5119 267.628 61.65 267.976 61.65H267.994C268.342 61.65 268.675 61.5119 268.921 61.2662C269.166 61.0204 269.304 60.6871 269.304 60.3395C269.304 59.9919 269.166 59.6586 268.921 59.4128C268.675 59.1671 268.342 59.029 267.994 59.029Z" fill="black"/>
<path d="M272.512 67.741H267.975C267.627 67.741 267.294 67.8791 267.048 68.1248C266.803 68.3706 266.665 68.7039 266.665 69.0515C266.665 69.399 266.803 69.7324 267.048 69.9781C267.294 70.2239 267.627 70.362 267.975 70.362H272.512C272.86 70.362 273.193 70.2239 273.439 69.9781C273.684 69.7324 273.823 69.399 273.823 69.0515C273.823 68.7039 273.684 68.3706 273.439 68.1248C273.193 67.8791 272.86 67.741 272.512 67.741Z" fill="black"/>
<path d="M272.512 75.997H267.993C267.645 75.997 267.312 76.1351 267.066 76.3808C266.821 76.6266 266.682 76.9599 266.682 77.3075C266.682 77.655 266.821 77.9884 267.066 78.2341C267.312 78.4799 267.645 78.618 267.993 78.618H272.512C272.86 78.618 273.193 78.4799 273.439 78.2341C273.684 77.9884 273.822 77.655 273.822 77.3075C273.822 76.9599 273.684 76.6266 273.439 76.3808C273.193 76.1351 272.86 75.997 272.512 75.997Z" fill="black"/>
<path d="M291.519 88.711C291.172 88.711 290.838 88.849 290.593 89.0947C290.347 89.3404 290.209 89.6736 290.209 90.021V90.035C290.209 90.3826 290.347 90.7159 290.593 90.9617C290.839 91.2074 291.172 91.3455 291.52 91.3455C291.867 91.3455 292.2 91.2074 292.446 90.9617C292.692 90.7159 292.83 90.3826 292.83 90.035V90.021C292.83 89.8489 292.796 89.6784 292.73 89.5194C292.664 89.3604 292.568 89.216 292.446 89.0943C292.324 88.9727 292.18 88.8762 292.021 88.8104C291.862 88.7447 291.691 88.7109 291.519 88.711Z" fill="black"/>
<path d="M317.63 98.853L310.938 92.161V35.312C310.938 35.1398 310.905 34.9692 310.839 34.8101C310.773 34.6509 310.677 34.5063 310.555 34.3844C310.433 34.2625 310.289 34.1659 310.13 34.0999C309.971 34.034 309.8 34 309.628 34H303.79C303.442 34 303.109 34.1381 302.863 34.3838C302.618 34.6296 302.479 34.9629 302.479 35.3105C302.479 35.6581 302.618 35.9914 302.863 36.2372C303.109 36.4829 303.442 36.621 303.79 36.621H308.317V89.54L304.25 85.472C304.475 85.21 304.695 84.943 304.904 84.667C306.782 82.1783 307.928 79.2154 308.215 76.1111C308.501 73.0068 307.916 69.8841 306.526 67.0938C305.136 64.3034 302.995 61.956 300.344 60.3152C297.694 58.6744 294.638 57.8051 291.521 57.8051C288.403 57.8051 285.347 58.6744 282.697 60.3152C280.046 61.956 277.905 64.3034 276.515 67.0938C275.125 69.8841 274.54 73.0068 274.826 76.1111C275.113 79.2154 276.259 82.1783 278.137 84.667C280.291 87.5078 283.288 89.5946 286.7 90.629C286.865 90.6784 287.038 90.6948 287.209 90.6774C287.38 90.6599 287.546 90.6089 287.698 90.5273C287.849 90.4457 287.983 90.335 288.092 90.2016C288.2 90.0683 288.282 89.9148 288.331 89.75C288.38 89.5852 288.397 89.4123 288.379 89.2411C288.362 89.07 288.311 88.9039 288.229 88.7525C288.148 88.601 288.037 88.4671 287.904 88.3584C287.77 88.2497 287.617 88.1684 287.452 88.119C284.2 87.1427 281.408 85.0292 279.585 82.1645C277.763 79.2998 277.031 75.8751 277.525 72.5159C278.018 69.1566 279.703 66.0869 282.273 63.8673C284.842 61.6477 288.124 60.4264 291.52 60.4264C294.915 60.4264 298.197 61.6477 300.766 63.8673C303.336 66.0869 305.021 69.1566 305.514 72.5159C306.008 75.8751 305.276 79.2998 303.454 82.1645C301.631 85.0292 298.839 87.1427 295.587 88.119C295.254 88.2187 294.975 88.4466 294.81 88.7525C294.645 89.0583 294.608 89.4172 294.708 89.75C294.808 90.0828 295.036 90.3624 295.341 90.5273C295.647 90.6921 296.006 90.7287 296.339 90.629C298.563 89.9557 300.624 88.829 302.391 87.32L308.317 93.246V98.468H260.623V36.623H292.323C292.671 36.623 293.004 36.4849 293.25 36.2392C293.495 35.9934 293.633 35.6601 293.633 35.3125C293.633 34.9649 293.495 34.6316 293.25 34.3858C293.004 34.1401 292.671 34.002 292.323 34.002H259.312C259.14 34.0017 258.969 34.0354 258.81 34.1011C258.651 34.1669 258.506 34.2633 258.384 34.385C258.263 34.5067 258.166 34.6512 258.1 34.8102C258.034 34.9693 258 35.1398 258 35.312V99.779C258 99.951 258.034 100.121 258.1 100.28C258.166 100.439 258.262 100.584 258.384 100.705C258.505 100.827 258.65 100.923 258.809 100.989C258.968 101.055 259.138 101.089 259.31 101.089H309.628C309.8 101.089 309.97 101.055 310.129 100.989C310.288 100.923 310.433 100.827 310.554 100.705C310.676 100.584 310.772 100.439 310.838 100.28C310.904 100.121 310.938 99.951 310.938 99.779V95.867L315.777 100.706C316.023 100.952 316.356 101.09 316.703 101.09C317.051 101.09 317.384 100.952 317.63 100.706C317.876 100.46 318.014 100.127 318.014 99.7795C318.014 99.432 317.876 99.0987 317.63 98.853Z" fill="black"/>
<path d="M247.56 183.72V198H249.46V191.9H254.1C254.567 191.9 254.94 191.973 255.22 192.12C255.5 192.253 255.727 192.44 255.9 192.68C256.073 192.907 256.2 193.18 256.28 193.5C256.36 193.807 256.427 194.133 256.48 194.48C256.547 194.827 256.587 195.18 256.6 195.54C256.613 195.9 256.627 196.24 256.64 196.56C256.653 196.867 256.68 197.147 256.72 197.4C256.773 197.653 256.867 197.853 257 198H259.12C258.92 197.76 258.767 197.487 258.66 197.18C258.567 196.86 258.493 196.527 258.44 196.18C258.387 195.833 258.353 195.48 258.34 195.12C258.327 194.76 258.307 194.407 258.28 194.06C258.24 193.713 258.18 193.38 258.1 193.06C258.033 192.74 257.92 192.453 257.76 192.2C257.613 191.933 257.407 191.707 257.14 191.52C256.887 191.333 256.553 191.2 256.14 191.12V191.08C257.007 190.84 257.633 190.393 258.02 189.74C258.42 189.087 258.62 188.327 258.62 187.46C258.62 186.3 258.233 185.387 257.46 184.72C256.7 184.053 255.64 183.72 254.28 183.72H247.56ZM253.42 190.3H249.46V185.32H254.18C255.073 185.32 255.72 185.547 256.12 186C256.52 186.453 256.72 187.04 256.72 187.76C256.72 188.28 256.627 188.707 256.44 189.04C256.267 189.36 256.027 189.62 255.72 189.82C255.427 190.007 255.08 190.133 254.68 190.2C254.28 190.267 253.86 190.3 253.42 190.3ZM268.151 191.84H262.211C262.238 191.44 262.325 191.067 262.471 190.72C262.618 190.36 262.818 190.047 263.071 189.78C263.325 189.513 263.625 189.307 263.971 189.16C264.331 189 264.731 188.92 265.171 188.92C265.598 188.92 265.985 189 266.331 189.16C266.691 189.307 266.998 189.513 267.251 189.78C267.518 190.033 267.725 190.34 267.871 190.7C268.031 191.06 268.125 191.44 268.151 191.84ZM269.791 194.72H268.111C267.965 195.4 267.658 195.907 267.191 196.24C266.738 196.573 266.151 196.74 265.431 196.74C264.871 196.74 264.385 196.647 263.971 196.46C263.558 196.273 263.218 196.027 262.951 195.72C262.685 195.4 262.491 195.04 262.371 194.64C262.251 194.227 262.198 193.793 262.211 193.34H269.951C269.978 192.713 269.918 192.053 269.771 191.36C269.638 190.667 269.385 190.027 269.011 189.44C268.651 188.853 268.165 188.373 267.551 188C266.951 187.613 266.191 187.42 265.271 187.42C264.565 187.42 263.911 187.553 263.311 187.82C262.725 188.087 262.211 188.46 261.771 188.94C261.345 189.42 261.011 189.987 260.771 190.64C260.531 191.293 260.411 192.013 260.411 192.8C260.438 193.587 260.551 194.313 260.751 194.98C260.965 195.647 261.278 196.22 261.691 196.7C262.105 197.18 262.611 197.553 263.211 197.82C263.825 198.087 264.545 198.22 265.371 198.22C266.545 198.22 267.518 197.927 268.291 197.34C269.065 196.753 269.565 195.88 269.791 194.72ZM272.754 194.74H271.054C271.08 195.38 271.214 195.927 271.454 196.38C271.694 196.82 272.014 197.18 272.414 197.46C272.814 197.727 273.274 197.92 273.794 198.04C274.314 198.16 274.86 198.22 275.434 198.22C275.954 198.22 276.474 198.167 276.994 198.06C277.527 197.967 278 197.793 278.414 197.54C278.84 197.287 279.18 196.953 279.434 196.54C279.7 196.127 279.834 195.607 279.834 194.98C279.834 194.487 279.734 194.073 279.534 193.74C279.347 193.407 279.094 193.133 278.774 192.92C278.467 192.693 278.107 192.513 277.694 192.38C277.294 192.247 276.88 192.133 276.454 192.04C276.054 191.947 275.654 191.86 275.254 191.78C274.854 191.687 274.494 191.58 274.174 191.46C273.854 191.327 273.587 191.167 273.374 190.98C273.174 190.78 273.074 190.533 273.074 190.24C273.074 189.973 273.14 189.76 273.274 189.6C273.407 189.427 273.58 189.293 273.794 189.2C274.007 189.093 274.24 189.02 274.494 188.98C274.76 188.94 275.02 188.92 275.274 188.92C275.554 188.92 275.827 188.953 276.094 189.02C276.374 189.073 276.627 189.167 276.854 189.3C277.08 189.433 277.267 189.613 277.414 189.84C277.56 190.053 277.647 190.327 277.674 190.66H279.374C279.334 190.033 279.2 189.513 278.974 189.1C278.747 188.673 278.44 188.34 278.054 188.1C277.68 187.847 277.247 187.673 276.754 187.58C276.26 187.473 275.72 187.42 275.134 187.42C274.68 187.42 274.22 187.48 273.754 187.6C273.3 187.707 272.887 187.88 272.514 188.12C272.154 188.347 271.854 188.647 271.614 189.02C271.387 189.393 271.274 189.84 271.274 190.36C271.274 191.027 271.44 191.547 271.774 191.92C272.107 192.293 272.52 192.587 273.014 192.8C273.52 193 274.067 193.16 274.654 193.28C275.24 193.387 275.78 193.513 276.274 193.66C276.78 193.793 277.2 193.973 277.534 194.2C277.867 194.427 278.034 194.76 278.034 195.2C278.034 195.52 277.954 195.787 277.794 196C277.634 196.2 277.427 196.353 277.174 196.46C276.934 196.567 276.667 196.64 276.374 196.68C276.08 196.72 275.8 196.74 275.534 196.74C275.187 196.74 274.847 196.707 274.514 196.64C274.194 196.573 273.9 196.467 273.634 196.32C273.38 196.16 273.174 195.953 273.014 195.7C272.854 195.433 272.767 195.113 272.754 194.74ZM288.894 191.84H282.954C282.98 191.44 283.067 191.067 283.214 190.72C283.36 190.36 283.56 190.047 283.814 189.78C284.067 189.513 284.367 189.307 284.714 189.16C285.074 189 285.474 188.92 285.914 188.92C286.34 188.92 286.727 189 287.074 189.16C287.434 189.307 287.74 189.513 287.994 189.78C288.26 190.033 288.467 190.34 288.614 190.7C288.774 191.06 288.867 191.44 288.894 191.84ZM290.534 194.72H288.854C288.707 195.4 288.4 195.907 287.934 196.24C287.48 196.573 286.894 196.74 286.174 196.74C285.614 196.74 285.127 196.647 284.714 196.46C284.3 196.273 283.96 196.027 283.694 195.72C283.427 195.4 283.234 195.04 283.114 194.64C282.994 194.227 282.94 193.793 282.954 193.34H290.694C290.72 192.713 290.66 192.053 290.514 191.36C290.38 190.667 290.127 190.027 289.754 189.44C289.394 188.853 288.907 188.373 288.294 188C287.694 187.613 286.934 187.42 286.014 187.42C285.307 187.42 284.654 187.553 284.054 187.82C283.467 188.087 282.954 188.46 282.514 188.94C282.087 189.42 281.754 189.987 281.514 190.64C281.274 191.293 281.154 192.013 281.154 192.8C281.18 193.587 281.294 194.313 281.494 194.98C281.707 195.647 282.02 196.22 282.434 196.7C282.847 197.18 283.354 197.553 283.954 197.82C284.567 198.087 285.287 198.22 286.114 198.22C287.287 198.22 288.26 197.927 289.034 197.34C289.807 196.753 290.307 195.88 290.534 194.72ZM301.616 197.96C301.322 198.133 300.916 198.22 300.396 198.22C299.956 198.22 299.602 198.1 299.336 197.86C299.082 197.607 298.956 197.2 298.956 196.64C298.489 197.2 297.942 197.607 297.316 197.86C296.702 198.1 296.036 198.22 295.316 198.22C294.849 198.22 294.402 198.167 293.976 198.06C293.562 197.953 293.202 197.787 292.896 197.56C292.589 197.333 292.342 197.04 292.156 196.68C291.982 196.307 291.896 195.86 291.896 195.34C291.896 194.753 291.996 194.273 292.196 193.9C292.396 193.527 292.656 193.227 292.976 193C293.309 192.76 293.682 192.58 294.096 192.46C294.522 192.34 294.956 192.24 295.396 192.16C295.862 192.067 296.302 192 296.716 191.96C297.142 191.907 297.516 191.84 297.836 191.76C298.156 191.667 298.409 191.54 298.596 191.38C298.782 191.207 298.876 190.96 298.876 190.64C298.876 190.267 298.802 189.967 298.656 189.74C298.522 189.513 298.342 189.34 298.116 189.22C297.902 189.1 297.656 189.02 297.376 188.98C297.109 188.94 296.842 188.92 296.576 188.92C295.856 188.92 295.256 189.06 294.776 189.34C294.296 189.607 294.036 190.12 293.996 190.88H292.296C292.322 190.24 292.456 189.7 292.696 189.26C292.936 188.82 293.256 188.467 293.656 188.2C294.056 187.92 294.509 187.72 295.016 187.6C295.536 187.48 296.089 187.42 296.676 187.42C297.142 187.42 297.602 187.453 298.056 187.52C298.522 187.587 298.942 187.727 299.316 187.94C299.689 188.14 299.989 188.427 300.216 188.8C300.442 189.173 300.556 189.66 300.556 190.26V195.58C300.556 195.98 300.576 196.273 300.616 196.46C300.669 196.647 300.829 196.74 301.096 196.74C301.242 196.74 301.416 196.707 301.616 196.64V197.96ZM298.856 192.66C298.642 192.82 298.362 192.94 298.016 193.02C297.669 193.087 297.302 193.147 296.916 193.2C296.542 193.24 296.162 193.293 295.776 193.36C295.389 193.413 295.042 193.507 294.736 193.64C294.429 193.773 294.176 193.967 293.976 194.22C293.789 194.46 293.696 194.793 293.696 195.22C293.696 195.5 293.749 195.74 293.856 195.94C293.976 196.127 294.122 196.28 294.296 196.4C294.482 196.52 294.696 196.607 294.936 196.66C295.176 196.713 295.429 196.74 295.696 196.74C296.256 196.74 296.736 196.667 297.136 196.52C297.536 196.36 297.862 196.167 298.116 195.94C298.369 195.7 298.556 195.447 298.676 195.18C298.796 194.9 298.856 194.64 298.856 194.4V192.66ZM303.138 187.66V198H304.838V193.4C304.838 192.733 304.905 192.147 305.038 191.64C305.171 191.12 305.385 190.68 305.678 190.32C305.971 189.96 306.358 189.687 306.838 189.5C307.318 189.313 307.898 189.22 308.578 189.22V187.42C307.658 187.393 306.898 187.58 306.298 187.98C305.698 188.38 305.191 189 304.778 189.84H304.738V187.66H303.138ZM316.527 190.98H318.287C318.22 190.367 318.06 189.84 317.807 189.4C317.553 188.947 317.227 188.573 316.827 188.28C316.44 187.987 315.987 187.773 315.467 187.64C314.96 187.493 314.413 187.42 313.827 187.42C313.013 187.42 312.3 187.567 311.687 187.86C311.073 188.14 310.56 188.533 310.147 189.04C309.747 189.533 309.447 190.12 309.247 190.8C309.047 191.467 308.947 192.187 308.947 192.96C308.947 193.733 309.047 194.447 309.247 195.1C309.46 195.74 309.767 196.293 310.167 196.76C310.58 197.227 311.087 197.587 311.687 197.84C312.3 198.093 313 198.22 313.787 198.22C315.107 198.22 316.147 197.873 316.907 197.18C317.68 196.487 318.16 195.5 318.347 194.22H316.607C316.5 195.02 316.207 195.64 315.727 196.08C315.26 196.52 314.607 196.74 313.767 196.74C313.233 196.74 312.773 196.633 312.387 196.42C312 196.207 311.687 195.927 311.447 195.58C311.207 195.22 311.027 194.813 310.907 194.36C310.8 193.907 310.747 193.44 310.747 192.96C310.747 192.44 310.8 191.94 310.907 191.46C311.013 190.967 311.187 190.533 311.427 190.16C311.68 189.787 312.013 189.487 312.427 189.26C312.84 189.033 313.353 188.92 313.967 188.92C314.687 188.92 315.26 189.1 315.687 189.46C316.113 189.82 316.393 190.327 316.527 190.98ZM320.249 183.72V198H321.949V192.16C321.949 191.693 322.009 191.267 322.129 190.88C322.262 190.48 322.455 190.133 322.709 189.84C322.962 189.547 323.275 189.32 323.649 189.16C324.035 189 324.489 188.92 325.009 188.92C325.662 188.92 326.175 189.107 326.549 189.48C326.922 189.853 327.109 190.36 327.109 191V198H328.809V191.2C328.809 190.64 328.749 190.133 328.629 189.68C328.522 189.213 328.329 188.813 328.049 188.48C327.769 188.147 327.402 187.887 326.949 187.7C326.495 187.513 325.929 187.42 325.249 187.42C324.942 187.42 324.622 187.453 324.289 187.52C323.969 187.587 323.655 187.693 323.349 187.84C323.055 187.973 322.789 188.153 322.549 188.38C322.309 188.593 322.122 188.86 321.989 189.18H321.949V183.72H320.249Z" fill="black"/>
<path d="M671.638 183.006V198H673.633V191.133H681.529V198H683.524V183.006H681.529V189.453H673.633V183.006H671.638ZM688.389 185.19V183.006H686.604V185.19H688.389ZM686.604 187.143V198H688.389V187.143H686.604ZM690.861 191.322V193.002H696.93V191.322H690.861ZM699.38 187.143V202.137H701.165V196.551H701.207C701.403 196.873 701.641 197.146 701.921 197.37C702.215 197.58 702.523 197.748 702.845 197.874C703.167 198 703.489 198.091 703.811 198.147C704.147 198.203 704.448 198.231 704.714 198.231C705.54 198.231 706.261 198.084 706.877 197.79C707.507 197.496 708.025 197.097 708.431 196.593C708.851 196.075 709.159 195.473 709.355 194.787C709.565 194.101 709.67 193.373 709.67 192.603C709.67 191.833 709.565 191.105 709.355 190.419C709.145 189.733 708.83 189.131 708.41 188.613C708.004 188.081 707.486 187.661 706.856 187.353C706.24 187.045 705.512 186.891 704.672 186.891C703.916 186.891 703.223 187.031 702.593 187.311C701.963 187.577 701.501 188.011 701.207 188.613H701.165V187.143H699.38ZM707.78 192.477C707.78 193.009 707.724 193.527 707.612 194.031C707.5 194.535 707.318 194.983 707.066 195.375C706.814 195.767 706.478 196.082 706.058 196.32C705.652 196.558 705.141 196.677 704.525 196.677C703.909 196.677 703.384 196.565 702.95 196.341C702.516 196.103 702.159 195.795 701.879 195.417C701.613 195.039 701.417 194.605 701.291 194.115C701.165 193.611 701.102 193.093 701.102 192.561C701.102 192.057 701.158 191.56 701.27 191.07C701.396 190.58 701.592 190.146 701.858 189.768C702.124 189.376 702.467 189.061 702.887 188.823C703.307 188.585 703.818 188.466 704.42 188.466C704.994 188.466 705.491 188.578 705.911 188.802C706.345 189.026 706.695 189.327 706.961 189.705C707.241 190.083 707.444 190.517 707.57 191.007C707.71 191.483 707.78 191.973 707.78 192.477ZM713.655 185.19V183.006H711.87V185.19H713.655ZM711.87 187.143V198H713.655V187.143H711.87ZM722.328 187.143V202.137H724.113V196.551H724.155C724.351 196.873 724.589 197.146 724.869 197.37C725.163 197.58 725.471 197.748 725.793 197.874C726.115 198 726.437 198.091 726.759 198.147C727.095 198.203 727.396 198.231 727.662 198.231C728.488 198.231 729.209 198.084 729.825 197.79C730.455 197.496 730.973 197.097 731.379 196.593C731.799 196.075 732.107 195.473 732.303 194.787C732.513 194.101 732.618 193.373 732.618 192.603C732.618 191.833 732.513 191.105 732.303 190.419C732.093 189.733 731.778 189.131 731.358 188.613C730.952 188.081 730.434 187.661 729.804 187.353C729.188 187.045 728.46 186.891 727.62 186.891C726.864 186.891 726.171 187.031 725.541 187.311C724.911 187.577 724.449 188.011 724.155 188.613H724.113V187.143H722.328ZM730.728 192.477C730.728 193.009 730.672 193.527 730.56 194.031C730.448 194.535 730.266 194.983 730.014 195.375C729.762 195.767 729.426 196.082 729.006 196.32C728.6 196.558 728.089 196.677 727.473 196.677C726.857 196.677 726.332 196.565 725.898 196.341C725.464 196.103 725.107 195.795 724.827 195.417C724.561 195.039 724.365 194.605 724.239 194.115C724.113 193.611 724.05 193.093 724.05 192.561C724.05 192.057 724.106 191.56 724.218 191.07C724.344 190.58 724.54 190.146 724.806 189.768C725.072 189.376 725.415 189.061 725.835 188.823C726.255 188.585 726.766 188.466 727.368 188.466C727.942 188.466 728.439 188.578 728.859 188.802C729.293 189.026 729.643 189.327 729.909 189.705C730.189 190.083 730.392 190.517 730.518 191.007C730.658 191.483 730.728 191.973 730.728 192.477ZM734.65 187.143V198H736.435V193.17C736.435 192.47 736.505 191.854 736.645 191.322C736.785 190.776 737.009 190.314 737.317 189.936C737.625 189.558 738.031 189.271 738.535 189.075C739.039 188.879 739.648 188.781 740.362 188.781V186.891C739.396 186.863 738.598 187.059 737.968 187.479C737.338 187.899 736.806 188.55 736.372 189.432H736.33V187.143H734.65ZM742.639 192.582C742.639 191.924 742.723 191.343 742.891 190.839C743.073 190.321 743.318 189.887 743.626 189.537C743.934 189.187 744.291 188.921 744.697 188.739C745.117 188.557 745.558 188.466 746.02 188.466C746.482 188.466 746.916 188.557 747.322 188.739C747.742 188.921 748.106 189.187 748.414 189.537C748.722 189.887 748.96 190.321 749.128 190.839C749.31 191.343 749.401 191.924 749.401 192.582C749.401 193.24 749.31 193.828 749.128 194.346C748.96 194.85 748.722 195.277 748.414 195.627C748.106 195.963 747.742 196.222 747.322 196.404C746.916 196.586 746.482 196.677 746.02 196.677C745.558 196.677 745.117 196.586 744.697 196.404C744.291 196.222 743.934 195.963 743.626 195.627C743.318 195.277 743.073 194.85 742.891 194.346C742.723 193.828 742.639 193.24 742.639 192.582ZM740.749 192.582C740.749 193.38 740.861 194.122 741.085 194.808C741.309 195.494 741.645 196.096 742.093 196.614C742.541 197.118 743.094 197.517 743.752 197.811C744.41 198.091 745.166 198.231 746.02 198.231C746.888 198.231 747.644 198.091 748.288 197.811C748.946 197.517 749.499 197.118 749.947 196.614C750.395 196.096 750.731 195.494 750.955 194.808C751.179 194.122 751.291 193.38 751.291 192.582C751.291 191.784 751.179 191.042 750.955 190.356C750.731 189.656 750.395 189.054 749.947 188.55C749.499 188.032 748.946 187.626 748.288 187.332C747.644 187.038 746.888 186.891 746.02 186.891C745.166 186.891 744.41 187.038 743.752 187.332C743.094 187.626 742.541 188.032 742.093 188.55C741.645 189.054 741.309 189.656 741.085 190.356C740.861 191.042 740.749 191.784 740.749 192.582ZM755.874 187.143V183.888H754.089V187.143H752.241V188.718H754.089V195.627C754.089 196.131 754.138 196.537 754.236 196.845C754.334 197.153 754.481 197.391 754.677 197.559C754.887 197.727 755.153 197.846 755.475 197.916C755.811 197.972 756.21 198 756.672 198H758.037V196.425H757.218C756.938 196.425 756.707 196.418 756.525 196.404C756.357 196.376 756.224 196.327 756.126 196.257C756.028 196.187 755.958 196.089 755.916 195.963C755.888 195.837 755.874 195.669 755.874 195.459V188.718H758.037V187.143H755.874ZM764.283 199.449C764.073 199.981 763.863 200.429 763.653 200.793C763.457 201.157 763.233 201.451 762.981 201.675C762.743 201.913 762.47 202.081 762.162 202.179C761.868 202.291 761.525 202.347 761.133 202.347C760.923 202.347 760.713 202.333 760.503 202.305C760.293 202.277 760.09 202.228 759.894 202.158V200.52C760.048 200.59 760.223 200.646 760.419 200.688C760.629 200.744 760.804 200.772 760.944 200.772C761.308 200.772 761.609 200.681 761.847 200.499C762.099 200.331 762.288 200.086 762.414 199.764L763.149 197.937L758.844 187.143H760.86L764.031 196.026H764.073L767.118 187.143H769.008L764.283 199.449ZM770.583 187.143V202.137H772.368V196.551H772.41C772.606 196.873 772.844 197.146 773.124 197.37C773.418 197.58 773.726 197.748 774.048 197.874C774.37 198 774.692 198.091 775.014 198.147C775.35 198.203 775.651 198.231 775.917 198.231C776.743 198.231 777.464 198.084 778.08 197.79C778.71 197.496 779.228 197.097 779.634 196.593C780.054 196.075 780.362 195.473 780.558 194.787C780.768 194.101 780.873 193.373 780.873 192.603C780.873 191.833 780.768 191.105 780.558 190.419C780.348 189.733 780.033 189.131 779.613 188.613C779.207 188.081 778.689 187.661 778.059 187.353C777.443 187.045 776.715 186.891 775.875 186.891C775.119 186.891 774.426 187.031 773.796 187.311C773.166 187.577 772.704 188.011 772.41 188.613H772.368V187.143H770.583ZM778.983 192.477C778.983 193.009 778.927 193.527 778.815 194.031C778.703 194.535 778.521 194.983 778.269 195.375C778.017 195.767 777.681 196.082 777.261 196.32C776.855 196.558 776.344 196.677 775.728 196.677C775.112 196.677 774.587 196.565 774.153 196.341C773.719 196.103 773.362 195.795 773.082 195.417C772.816 195.039 772.62 194.605 772.494 194.115C772.368 193.611 772.305 193.093 772.305 192.561C772.305 192.057 772.361 191.56 772.473 191.07C772.599 190.58 772.795 190.146 773.061 189.768C773.327 189.376 773.67 189.061 774.09 188.823C774.51 188.585 775.021 188.466 775.623 188.466C776.197 188.466 776.694 188.578 777.114 188.802C777.548 189.026 777.898 189.327 778.164 189.705C778.444 190.083 778.647 190.517 778.773 191.007C778.913 191.483 778.983 191.973 778.983 192.477ZM790.507 191.532H784.27C784.298 191.112 784.389 190.72 784.543 190.356C784.697 189.978 784.907 189.649 785.173 189.369C785.439 189.089 785.754 188.872 786.118 188.718C786.496 188.55 786.916 188.466 787.378 188.466C787.826 188.466 788.232 188.55 788.596 188.718C788.974 188.872 789.296 189.089 789.562 189.369C789.842 189.635 790.059 189.957 790.213 190.335C790.381 190.713 790.479 191.112 790.507 191.532ZM792.229 194.556H790.465C790.311 195.27 789.989 195.802 789.499 196.152C789.023 196.502 788.407 196.677 787.651 196.677C787.063 196.677 786.552 196.579 786.118 196.383C785.684 196.187 785.327 195.928 785.047 195.606C784.767 195.27 784.564 194.892 784.438 194.472C784.312 194.038 784.256 193.583 784.27 193.107H792.397C792.425 192.449 792.362 191.756 792.208 191.028C792.068 190.3 791.802 189.628 791.41 189.012C791.032 188.396 790.521 187.892 789.877 187.5C789.247 187.094 788.449 186.891 787.483 186.891C786.741 186.891 786.055 187.031 785.425 187.311C784.809 187.591 784.27 187.983 783.808 188.487C783.36 188.991 783.01 189.586 782.758 190.272C782.506 190.958 782.38 191.714 782.38 192.54C782.408 193.366 782.527 194.129 782.737 194.829C782.961 195.529 783.29 196.131 783.724 196.635C784.158 197.139 784.69 197.531 785.32 197.811C785.964 198.091 786.72 198.231 787.588 198.231C788.82 198.231 789.842 197.923 790.654 197.307C791.466 196.691 791.991 195.774 792.229 194.556Z" fill="black"/>
<path d="M730.5 135C767.779 135 798 104.779 798 67.5C798 30.2208 767.779 0 730.5 0C693.221 0 663 30.2208 663 67.5C663 104.779 693.221 135 730.5 135Z" fill="white"/>
<path d="M760 50.487C760.141 50.487 760.281 50.4592 760.411 50.4052C760.542 50.3511 760.66 50.272 760.76 50.1721C760.86 50.0723 760.939 49.9538 760.993 49.8234C761.047 49.693 761.075 49.5532 761.075 49.412V44.752H764.3C764.585 44.752 764.859 44.6387 765.06 44.4371C765.262 44.2355 765.375 43.9621 765.375 43.677V35.077C765.375 34.9357 765.348 34.7957 765.294 34.665C765.24 34.5343 765.161 34.4156 765.061 34.3156C764.961 34.2155 764.842 34.1362 764.712 34.082C764.581 34.0279 764.441 34 764.3 34H755.7C755.415 34 755.141 34.1133 754.94 34.3149C754.738 34.5165 754.625 34.7899 754.625 35.075V38.3H708.752V35.075C708.752 34.9338 708.724 34.794 708.67 34.6636C708.616 34.5332 708.537 34.4147 708.437 34.3149C708.337 34.215 708.219 34.1359 708.088 34.0818C707.958 34.0278 707.818 34 707.677 34H699.077C698.936 33.9997 698.796 34.0274 698.665 34.0813C698.534 34.1352 698.416 34.2143 698.316 34.3142C698.216 34.414 698.136 34.5326 698.082 34.6632C698.028 34.7937 698 34.9337 698 35.075V43.675C698 43.9601 698.113 44.2335 698.315 44.4351C698.516 44.6367 698.79 44.75 699.075 44.75H702.3V90.627H699.075C698.79 90.627 698.517 90.74 698.316 90.9412C698.114 91.1423 698.001 91.4152 698 91.7V100.3C698 100.585 698.113 100.859 698.315 101.06C698.516 101.262 698.79 101.375 699.075 101.375H707.675C707.816 101.375 707.956 101.348 708.087 101.294C708.218 101.24 708.336 101.161 708.436 101.061C708.536 100.961 708.616 100.842 708.67 100.712C708.724 100.581 708.752 100.441 708.752 100.3V97.078H754.627V100.3C754.626 100.441 754.654 100.581 754.707 100.712C754.761 100.843 754.84 100.962 754.94 101.062C755.039 101.162 755.158 101.242 755.288 101.296C755.419 101.351 755.559 101.379 755.7 101.379H764.3C764.442 101.38 764.582 101.352 764.714 101.298C764.845 101.244 764.964 101.164 765.064 101.064C765.164 100.964 765.244 100.845 765.298 100.714C765.352 100.582 765.38 100.442 765.379 100.3V91.7C765.379 91.5587 765.351 91.4188 765.296 91.2883C765.242 91.1578 765.162 91.0394 765.062 90.9397C764.962 90.8401 764.843 90.7612 764.712 90.7075C764.581 90.6538 764.441 90.6265 764.3 90.627H761.078V53.713C761.078 53.4279 760.965 53.1545 760.763 52.9529C760.562 52.7513 760.288 52.638 760.003 52.638C759.718 52.638 759.444 52.7513 759.243 52.9529C759.041 53.1545 758.928 53.4279 758.928 53.713V90.627H755.7C755.416 90.6275 755.143 90.7407 754.942 90.9419C754.741 91.143 754.628 91.4156 754.627 91.7V94.926H708.752V91.7C708.752 91.4149 708.639 91.1415 708.437 90.9399C708.236 90.7383 707.962 90.625 707.677 90.625H704.451V44.752H707.677C707.962 44.752 708.236 44.6387 708.437 44.4371C708.639 44.2355 708.752 43.9621 708.752 43.677V40.451H754.627V43.677C754.627 43.9618 754.74 44.2349 754.941 44.4364C755.142 44.638 755.415 44.7515 755.7 44.752H758.926V49.412C758.926 49.6969 759.039 49.9702 759.241 50.1718C759.442 50.3734 759.715 50.4867 760 50.487ZM756.774 92.777H763.225V99.228H756.777L756.774 92.777ZM706.6 99.229H700.15V92.777H706.6V99.229ZM706.6 42.6H700.15V36.15H706.6V42.6ZM756.777 36.15H763.228V42.6H756.777V36.15Z" fill="black"/>
<path d="M751.043 49.412C751.044 49.2704 751.016 49.1301 750.963 48.9991C750.909 48.8681 750.83 48.749 750.73 48.6486C750.63 48.5483 750.511 48.4686 750.381 48.4143C750.25 48.36 750.11 48.332 749.968 48.332H713.411C713.269 48.332 713.129 48.36 712.998 48.4143C712.868 48.4686 712.749 48.5483 712.649 48.6486C712.549 48.749 712.47 48.8681 712.416 48.9991C712.363 49.1301 712.335 49.2704 712.336 49.412V67.689C712.336 67.9741 712.449 68.2475 712.651 68.4491C712.852 68.6507 713.126 68.764 713.411 68.764H749.968C750.253 68.764 750.527 68.6507 750.728 68.4491C750.93 68.2475 751.043 67.9741 751.043 67.689V49.412ZM714.486 51.152L729.286 58.552L714.486 65.952V51.152ZM717.965 50.488H745.412L731.689 57.349L717.965 50.488ZM731.689 59.754L745.413 66.615H717.966L731.689 59.754ZM734.089 58.554L748.889 51.154V65.954L734.089 58.554Z" fill="black"/>
<path d="M729.536 84.893H713.411C713.27 84.893 713.13 84.9208 713 84.9748C712.869 85.0288 712.751 85.108 712.651 85.2079C712.551 85.3077 712.472 85.4262 712.418 85.5566C712.364 85.687 712.336 85.8268 712.336 85.968C712.336 86.1092 712.364 86.249 712.418 86.3794C712.472 86.5098 712.551 86.6283 712.651 86.7281C712.751 86.828 712.869 86.9072 713 86.9612C713.13 87.0152 713.27 87.043 713.411 87.043H729.536C729.677 87.043 729.817 87.0152 729.947 86.9612C730.078 86.9072 730.196 86.828 730.296 86.7281C730.396 86.6283 730.475 86.5098 730.529 86.3794C730.583 86.249 730.611 86.1092 730.611 85.968C730.611 85.8268 730.583 85.687 730.529 85.5566C730.475 85.4262 730.396 85.3077 730.296 85.2079C730.196 85.108 730.078 85.0288 729.947 84.9748C729.817 84.9208 729.677 84.893 729.536 84.893Z" fill="black"/>
<path d="M749.965 84.893H733.84C733.699 84.893 733.559 84.9208 733.429 84.9748C733.298 85.0288 733.18 85.108 733.08 85.2079C732.98 85.3077 732.901 85.4262 732.847 85.5566C732.793 85.687 732.765 85.8268 732.765 85.968C732.765 86.1092 732.793 86.249 732.847 86.3794C732.901 86.5098 732.98 86.6283 733.08 86.7281C733.18 86.828 733.298 86.9072 733.429 86.9612C733.559 87.0152 733.699 87.043 733.84 87.043H749.965C750.106 87.043 750.246 87.0152 750.376 86.9612C750.507 86.9072 750.625 86.828 750.725 86.7281C750.825 86.6283 750.904 86.5098 750.958 86.3794C751.012 86.249 751.04 86.1092 751.04 85.968C751.04 85.8268 751.012 85.687 750.958 85.5566C750.904 85.4262 750.825 85.3077 750.725 85.2079C750.625 85.108 750.507 85.0288 750.376 84.9748C750.246 84.9208 750.106 84.893 749.965 84.893Z" fill="black"/>
<path d="M729.536 80.323H713.411C713.126 80.323 712.852 80.4362 712.651 80.6378C712.449 80.8394 712.336 81.1129 712.336 81.398C712.336 81.6831 712.449 81.9565 712.651 82.1581C712.852 82.3597 713.126 82.473 713.411 82.473H729.536C729.821 82.473 730.095 82.3597 730.296 82.1581C730.498 81.9565 730.611 81.6831 730.611 81.398C730.611 81.1129 730.498 80.8394 730.296 80.6378C730.095 80.4362 729.821 80.323 729.536 80.323Z" fill="black"/>
<path d="M749.965 80.323H733.84C733.555 80.323 733.281 80.4362 733.08 80.6378C732.878 80.8394 732.765 81.1129 732.765 81.398C732.765 81.6831 732.878 81.9565 733.08 82.1581C733.281 82.3597 733.555 82.473 733.84 82.473H749.965C750.25 82.473 750.524 82.3597 750.725 82.1581C750.927 81.9565 751.04 81.6831 751.04 81.398C751.04 81.1129 750.927 80.8394 750.725 80.6378C750.524 80.4362 750.25 80.323 749.965 80.323Z" fill="black"/>
<path d="M729.536 75.753H713.411C713.27 75.753 713.13 75.7808 713 75.8348C712.869 75.8888 712.751 75.968 712.651 76.0678C712.551 76.1677 712.472 76.2862 712.418 76.4166C712.364 76.547 712.336 76.6868 712.336 76.828C712.336 76.9692 712.364 77.109 712.418 77.2394C712.472 77.3698 712.551 77.4883 712.651 77.5881C712.751 77.688 712.869 77.7672 713 77.8212C713.13 77.8752 713.27 77.903 713.411 77.903H729.536C729.677 77.903 729.817 77.8752 729.947 77.8212C730.078 77.7672 730.196 77.688 730.296 77.5881C730.396 77.4883 730.475 77.3698 730.529 77.2394C730.583 77.109 730.611 76.9692 730.611 76.828C730.611 76.6868 730.583 76.547 730.529 76.4166C730.475 76.2862 730.396 76.1677 730.296 76.0678C730.196 75.968 730.078 75.8888 729.947 75.8348C729.817 75.7808 729.677 75.753 729.536 75.753Z" fill="black"/>
<path d="M749.965 75.753H733.84C733.555 75.753 733.281 75.8662 733.08 76.0678C732.878 76.2694 732.765 76.5429 732.765 76.828C732.765 77.1131 732.878 77.3865 733.08 77.5881C733.281 77.7897 733.555 77.903 733.84 77.903H749.965C750.25 77.903 750.524 77.7897 750.725 77.5881C750.927 77.3865 751.04 77.1131 751.04 76.828C751.04 76.5429 750.927 76.2694 750.725 76.0678C750.524 75.8662 750.25 75.753 749.965 75.753Z" fill="black"/>
<path d="M749.968 71.184H713.411C713.27 71.184 713.13 71.2118 713 71.2658C712.869 71.3199 712.751 71.399 712.651 71.4989C712.551 71.5987 712.472 71.7172 712.418 71.8476C712.364 71.9781 712.336 72.1178 712.336 72.259C712.336 72.4002 712.364 72.54 712.418 72.6704C712.472 72.8008 712.551 72.9193 712.651 73.0191C712.751 73.119 712.869 73.1981 713 73.2522C713.13 73.3062 713.27 73.334 713.411 73.334H749.968C750.109 73.334 750.249 73.3062 750.379 73.2522C750.51 73.1981 750.628 73.119 750.728 73.0191C750.828 72.9193 750.907 72.8008 750.961 72.6704C751.015 72.54 751.043 72.4002 751.043 72.259C751.043 72.1178 751.015 71.9781 750.961 71.8476C750.907 71.7172 750.828 71.5987 750.728 71.4989C750.628 71.399 750.51 71.3199 750.379 71.2658C750.249 71.2118 750.109 71.184 749.968 71.184Z" fill="black"/>
<path d="M951.5 135C988.779 135 1019 104.779 1019 67.5C1019 30.2208 988.779 0 951.5 0C914.221 0 884 30.2208 884 67.5C884 104.779 914.221 135 951.5 135Z" fill="white"/>
<path d="M973.834 86.446V61.071C973.861 60.6709 973.803 60.2697 973.663 59.8938C973.523 59.5179 973.306 59.1759 973.024 58.8904C972.742 58.6049 972.404 58.3824 972.03 58.2375C971.656 58.0926 971.255 58.0287 970.855 58.05H935.103C934.703 58.0286 934.302 58.0924 933.928 58.2372C933.554 58.382 933.215 58.6045 932.933 58.89C932.652 59.1756 932.434 59.5176 932.294 59.8935C932.154 60.2695 932.096 60.6708 932.123 61.071V97.321C932.096 97.7211 932.154 98.1225 932.294 98.4984C932.434 98.8744 932.652 99.2164 932.933 99.5019C933.215 99.7875 933.554 100.01 933.928 100.155C934.302 100.3 934.703 100.363 935.103 100.342H970.855C971.255 100.363 971.656 100.299 972.03 100.154C972.404 100.01 972.742 99.7871 973.024 99.5015C973.306 99.216 973.523 98.874 973.663 98.4982C973.803 98.1223 973.861 97.7211 973.834 97.321V86.446ZM971.2 97.671H934.761V60.723H971.2V97.671Z" fill="black"/>
<path d="M973.836 93.167L987.43 100.115C987.894 100.358 988.419 100.462 988.941 100.415C989.344 100.439 989.748 100.378 990.125 100.235C990.503 100.092 990.846 99.8698 991.131 99.5843C991.417 99.2987 991.639 98.9559 991.782 98.5783C991.925 98.2007 991.986 97.7971 991.962 97.394V61.144C991.93 60.6067 991.777 60.0836 991.516 59.613C991.254 59.1425 990.891 58.7365 990.452 58.425C990.004 58.1293 989.479 57.9716 988.942 57.9716C988.404 57.9716 987.879 58.1293 987.431 58.425L973.837 65.373L967.795 68.394L951.18 76.55C950.716 76.8353 950.333 77.2353 950.068 77.7116C949.804 78.1878 949.666 78.7242 949.669 79.269C949.666 79.8138 949.804 80.3502 950.068 80.8264C950.333 81.3026 950.716 81.7026 951.18 81.988L967.795 90.144L973.836 93.167ZM989.436 61.13V97.669L973.836 89.369V69.439L989.436 61.13ZM971.202 88.661L952.16 79.401L971.202 70.141V88.661Z" fill="black"/>
<path d="M935.372 34C932.565 34 929.786 34.5528 927.193 35.627C924.6 36.7011 922.244 38.2754 920.259 40.2601C918.275 42.2448 916.701 44.6009 915.627 47.194C914.553 49.7871 914 52.5663 914 55.373C914 58.1797 914.553 60.9589 915.627 63.552C916.701 66.1451 918.275 68.5013 920.259 70.4859C922.244 72.4706 924.6 74.0449 927.193 75.119C929.786 76.1932 932.565 76.746 935.372 76.746C941.04 76.746 946.477 74.4942 950.485 70.486C954.493 66.4778 956.745 61.0415 956.745 55.373C956.745 49.7045 954.493 44.2682 950.485 40.26C946.477 36.2518 941.04 34 935.372 34ZM935.372 74.159C930.39 74.1587 925.612 72.1794 922.089 68.6564C918.566 65.1334 916.586 60.3553 916.586 55.373C916.586 50.3906 918.565 45.6124 922.088 42.0893C925.611 38.5662 930.39 36.587 935.372 36.587C937.839 36.5869 940.282 37.0727 942.561 38.0167C944.841 38.9607 946.912 40.3445 948.656 42.0889C950.401 43.8334 951.785 45.9044 952.729 48.1837C953.673 50.463 954.159 52.9059 954.159 55.373C954.159 60.3554 952.179 65.1337 948.656 68.6568C945.133 72.1798 940.354 74.159 935.372 74.159Z" fill="black"/>
<path d="M925.46 196.4V185.32H928.66C929.54 185.32 930.28 185.447 930.88 185.7C931.48 185.94 931.967 186.3 932.34 186.78C932.727 187.247 933 187.82 933.16 188.5C933.333 189.167 933.42 189.927 933.42 190.78C933.42 191.66 933.327 192.413 933.14 193.04C932.967 193.653 932.74 194.167 932.46 194.58C932.18 194.993 931.86 195.32 931.5 195.56C931.153 195.8 930.8 195.987 930.44 196.12C930.08 196.24 929.74 196.32 929.42 196.36C929.1 196.387 928.833 196.4 928.62 196.4H925.46ZM923.56 183.72V198H928.46C929.647 198 930.673 197.833 931.54 197.5C932.407 197.167 933.12 196.687 933.68 196.06C934.24 195.42 934.653 194.64 934.92 193.72C935.187 192.787 935.32 191.72 935.32 190.52C935.32 188.227 934.727 186.52 933.54 185.4C932.353 184.28 930.66 183.72 928.46 183.72H923.56ZM944.542 191.84H938.602C938.629 191.44 938.715 191.067 938.862 190.72C939.009 190.36 939.209 190.047 939.462 189.78C939.715 189.513 940.015 189.307 940.362 189.16C940.722 189 941.122 188.92 941.562 188.92C941.989 188.92 942.375 189 942.722 189.16C943.082 189.307 943.389 189.513 943.642 189.78C943.909 190.033 944.115 190.34 944.262 190.7C944.422 191.06 944.515 191.44 944.542 191.84ZM946.182 194.72H944.502C944.355 195.4 944.049 195.907 943.582 196.24C943.129 196.573 942.542 196.74 941.822 196.74C941.262 196.74 940.775 196.647 940.362 196.46C939.949 196.273 939.609 196.027 939.342 195.72C939.075 195.4 938.882 195.04 938.762 194.64C938.642 194.227 938.589 193.793 938.602 193.34H946.342C946.369 192.713 946.309 192.053 946.162 191.36C946.029 190.667 945.775 190.027 945.402 189.44C945.042 188.853 944.555 188.373 943.942 188C943.342 187.613 942.582 187.42 941.662 187.42C940.955 187.42 940.302 187.553 939.702 187.82C939.115 188.087 938.602 188.46 938.162 188.94C937.735 189.42 937.402 189.987 937.162 190.64C936.922 191.293 936.802 192.013 936.802 192.8C936.829 193.587 936.942 194.313 937.142 194.98C937.355 195.647 937.669 196.22 938.082 196.7C938.495 197.18 939.002 197.553 939.602 197.82C940.215 198.087 940.935 198.22 941.762 198.22C942.935 198.22 943.909 197.927 944.682 197.34C945.455 196.753 945.955 195.88 946.182 194.72ZM949.144 194.74H947.444C947.471 195.38 947.604 195.927 947.844 196.38C948.084 196.82 948.404 197.18 948.804 197.46C949.204 197.727 949.664 197.92 950.184 198.04C950.704 198.16 951.251 198.22 951.824 198.22C952.344 198.22 952.864 198.167 953.384 198.06C953.918 197.967 954.391 197.793 954.804 197.54C955.231 197.287 955.571 196.953 955.824 196.54C956.091 196.127 956.224 195.607 956.224 194.98C956.224 194.487 956.124 194.073 955.924 193.74C955.738 193.407 955.484 193.133 955.164 192.92C954.858 192.693 954.498 192.513 954.084 192.38C953.684 192.247 953.271 192.133 952.844 192.04C952.444 191.947 952.044 191.86 951.644 191.78C951.244 191.687 950.884 191.58 950.564 191.46C950.244 191.327 949.978 191.167 949.764 190.98C949.564 190.78 949.464 190.533 949.464 190.24C949.464 189.973 949.531 189.76 949.664 189.6C949.798 189.427 949.971 189.293 950.184 189.2C950.398 189.093 950.631 189.02 950.884 188.98C951.151 188.94 951.411 188.92 951.664 188.92C951.944 188.92 952.218 188.953 952.484 189.02C952.764 189.073 953.018 189.167 953.244 189.3C953.471 189.433 953.658 189.613 953.804 189.84C953.951 190.053 954.038 190.327 954.064 190.66H955.764C955.724 190.033 955.591 189.513 955.364 189.1C955.138 188.673 954.831 188.34 954.444 188.1C954.071 187.847 953.638 187.673 953.144 187.58C952.651 187.473 952.111 187.42 951.524 187.42C951.071 187.42 950.611 187.48 950.144 187.6C949.691 187.707 949.278 187.88 948.904 188.12C948.544 188.347 948.244 188.647 948.004 189.02C947.778 189.393 947.664 189.84 947.664 190.36C947.664 191.027 947.831 191.547 948.164 191.92C948.498 192.293 948.911 192.587 949.404 192.8C949.911 193 950.458 193.16 951.044 193.28C951.631 193.387 952.171 193.513 952.664 193.66C953.171 193.793 953.591 193.973 953.924 194.2C954.258 194.427 954.424 194.76 954.424 195.2C954.424 195.52 954.344 195.787 954.184 196C954.024 196.2 953.818 196.353 953.564 196.46C953.324 196.567 953.058 196.64 952.764 196.68C952.471 196.72 952.191 196.74 951.924 196.74C951.578 196.74 951.238 196.707 950.904 196.64C950.584 196.573 950.291 196.467 950.024 196.32C949.771 196.16 949.564 195.953 949.404 195.7C949.244 195.433 949.158 195.113 949.144 194.74ZM959.904 185.8V183.72H958.204V185.8H959.904ZM958.204 187.66V198H959.904V187.66H958.204ZM971.458 197.12V187.66H969.858V189.14H969.838C969.531 188.567 969.104 188.14 968.558 187.86C968.011 187.567 967.411 187.42 966.758 187.42C965.864 187.42 965.111 187.593 964.498 187.94C963.884 188.273 963.391 188.707 963.018 189.24C962.644 189.76 962.378 190.347 962.218 191C962.058 191.64 961.978 192.267 961.978 192.88C961.978 193.587 962.071 194.26 962.258 194.9C962.458 195.527 962.751 196.08 963.138 196.56C963.524 197.027 964.004 197.4 964.578 197.68C965.151 197.96 965.824 198.1 966.598 198.1C967.264 198.1 967.891 197.953 968.478 197.66C969.078 197.353 969.524 196.88 969.818 196.24H969.858V196.92C969.858 197.493 969.798 198.02 969.678 198.5C969.571 198.98 969.391 199.387 969.138 199.72C968.884 200.067 968.564 200.333 968.178 200.52C967.791 200.72 967.318 200.82 966.758 200.82C966.478 200.82 966.184 200.787 965.878 200.72C965.571 200.667 965.284 200.573 965.018 200.44C964.764 200.307 964.544 200.133 964.358 199.92C964.184 199.707 964.091 199.447 964.078 199.14H962.378C962.404 199.7 962.551 200.173 962.818 200.56C963.084 200.947 963.418 201.26 963.818 201.5C964.231 201.74 964.684 201.913 965.178 202.02C965.684 202.127 966.178 202.18 966.658 202.18C968.311 202.18 969.524 201.76 970.298 200.92C971.071 200.08 971.458 198.813 971.458 197.12ZM966.698 196.62C966.138 196.62 965.671 196.507 965.298 196.28C964.924 196.04 964.624 195.733 964.398 195.36C964.171 194.973 964.011 194.547 963.918 194.08C963.824 193.613 963.778 193.147 963.778 192.68C963.778 192.187 963.831 191.713 963.938 191.26C964.058 190.807 964.238 190.407 964.478 190.06C964.731 189.713 965.051 189.44 965.438 189.24C965.824 189.027 966.291 188.92 966.838 188.92C967.371 188.92 967.824 189.027 968.198 189.24C968.571 189.453 968.871 189.74 969.098 190.1C969.338 190.447 969.511 190.84 969.618 191.28C969.724 191.72 969.778 192.167 969.778 192.62C969.778 193.1 969.718 193.58 969.598 194.06C969.491 194.54 969.318 194.973 969.078 195.36C968.838 195.733 968.518 196.04 968.118 196.28C967.731 196.507 967.258 196.62 966.698 196.62ZM974.022 187.66V198H975.722V192.16C975.722 191.693 975.782 191.267 975.902 190.88C976.036 190.48 976.229 190.133 976.482 189.84C976.736 189.547 977.049 189.32 977.422 189.16C977.809 189 978.262 188.92 978.782 188.92C979.436 188.92 979.949 189.107 980.322 189.48C980.696 189.853 980.882 190.36 980.882 191V198H982.582V191.2C982.582 190.64 982.522 190.133 982.402 189.68C982.296 189.213 982.102 188.813 981.822 188.48C981.542 188.147 981.176 187.887 980.722 187.7C980.269 187.513 979.702 187.42 979.022 187.42C977.489 187.42 976.369 188.047 975.662 189.3H975.622V187.66H974.022Z" fill="black"/>
<path d="M509.5 135C546.779 135 577 104.779 577 67.5C577 30.2208 546.779 0 509.5 0C472.221 0 442 30.2208 442 67.5C442 104.779 472.221 135 509.5 135Z" fill="white"/>
<path d="M516.16 34.002C517.287 34.824 517.297 35.544 516.168 36.309C514.339 37.549 512.499 38.774 510.523 40.099C510.923 40.217 511.17 40.299 511.423 40.366C517.931 41.9095 523.635 45.8149 527.427 51.3247C531.22 56.8346 532.831 63.5565 531.949 70.187C530.719 79.521 525.7 86.369 517.444 90.859C517.15 90.9862 516.863 91.1305 516.585 91.291C513.468 93.501 509.971 93.905 506.241 93.845C497.991 93.711 489.741 93.803 481.485 93.803C481.228 93.803 480.97 93.815 480.715 93.793C480.361 93.7726 480.029 93.6173 479.786 93.359C479.543 93.1008 479.408 92.7593 479.41 92.4048C479.411 92.0503 479.548 91.7099 479.793 91.4536C480.038 91.1972 480.372 91.0446 480.726 91.027C481.013 91 481.304 91.017 481.593 91.018C489.46 91.038 497.326 91.0596 505.193 91.083C512.875 91.117 519.029 87.937 523.883 82.128C526.621 78.821 528.407 74.8304 529.047 70.585C530.062 64.4576 528.68 58.1744 525.188 53.0385C521.695 47.9025 516.36 44.3079 510.288 43C510.05 42.949 509.806 42.928 509.382 42.867L513.861 48.607C513.999 48.784 514.138 48.961 514.274 49.139C514.394 49.2494 514.488 49.385 514.549 49.5361C514.61 49.6872 514.637 49.85 514.627 50.0127C514.617 50.1754 514.572 50.3339 514.493 50.4768C514.415 50.6197 514.306 50.7434 514.174 50.839C514.052 50.9471 513.907 51.0262 513.75 51.0704C513.593 51.1147 513.428 51.1229 513.267 51.0946C513.106 51.0662 512.954 51.002 512.822 50.9066C512.689 50.8113 512.58 50.6874 512.502 50.544C511.566 49.361 510.641 48.169 509.712 46.98L505.08 41.047C505.394 40.824 505.664 40.624 505.943 40.437C508.846 38.4863 511.75 36.536 514.653 34.586C514.911 34.412 515.142 34.196 515.385 34L516.16 34.002Z" fill="black"/>
<path d="M478 64.648C478.333 62.5025 478.795 60.379 479.383 58.289C482.413 49.423 488.496 43.607 497.405 40.735C497.617 40.6614 497.834 40.6019 498.054 40.557C498.234 40.5103 498.421 40.4998 498.604 40.526C498.788 40.5523 498.964 40.6148 499.124 40.7099C499.283 40.805 499.422 40.9308 499.532 41.08C499.642 41.2292 499.722 41.3988 499.766 41.579C499.814 41.7508 499.828 41.9303 499.807 42.1075C499.785 42.2846 499.729 42.4558 499.642 42.6112C499.554 42.7666 499.437 42.9032 499.296 43.0132C499.156 43.1231 498.995 43.2043 498.823 43.252C498.285 43.457 497.712 43.571 497.174 43.778C487.837 47.37 482.182 54.108 481.045 64.023C479.911 73.923 483.945 81.706 492.202 87.282C492.556 87.4885 492.872 87.7555 493.134 88.071C491.588 88.071 490.041 88.088 488.495 88.051C488.283 88.051 488.064 87.793 487.87 87.629C482.46 83.2095 478.985 76.855 478.184 69.915C478.14 69.57 478.062 69.23 478 68.887V64.648Z" fill="black"/>
<path d="M538.375 93.795H518.881C520.375 92.821 521.686 91.939 523.031 91.112C523.331 91.0018 523.654 90.9675 523.971 91.012C528.432 91.0053 532.892 91.0027 537.352 91.004H538.672L536.283 88.771C535.205 87.763 534.115 86.771 533.053 85.742C532.931 85.6468 532.831 85.5258 532.76 85.3876C532.69 85.2494 532.651 85.0974 532.646 84.9425C532.642 84.7875 532.671 84.6334 532.732 84.4911C532.794 84.3487 532.886 84.2217 533.002 84.119C533.096 84.006 533.214 83.9145 533.346 83.8505C533.479 83.7865 533.624 83.7516 533.771 83.748C533.918 83.7444 534.064 83.7723 534.2 83.8297C534.335 83.8871 534.457 83.9727 534.557 84.081C537.525 86.817 540.476 89.57 543.484 92.365C543.24 92.625 543.061 92.84 542.858 93.029C540.205 95.501 537.55 97.97 534.892 100.436C534.122 101.15 533.479 101.223 532.97 100.677C532.461 100.131 532.596 99.477 533.348 98.777C535.053 97.177 536.763 95.585 538.478 94.001L538.375 93.795Z" fill="black"/>
<path d="M408.633 196.32V184.686H411.993C412.917 184.686 413.694 184.819 414.324 185.085C414.954 185.337 415.465 185.715 415.857 186.219C416.263 186.709 416.55 187.311 416.718 188.025C416.9 188.725 416.991 189.523 416.991 190.419C416.991 191.343 416.893 192.134 416.697 192.792C416.515 193.436 416.277 193.975 415.983 194.409C415.689 194.843 415.353 195.186 414.975 195.438C414.611 195.69 414.24 195.886 413.862 196.026C413.484 196.152 413.127 196.236 412.791 196.278C412.455 196.306 412.175 196.32 411.951 196.32H408.633ZM406.638 183.006V198H411.783C413.029 198 414.107 197.825 415.017 197.475C415.927 197.125 416.676 196.621 417.264 195.963C417.852 195.291 418.286 194.472 418.566 193.506C418.846 192.526 418.986 191.406 418.986 190.146C418.986 187.738 418.363 185.946 417.117 184.77C415.871 183.594 414.093 183.006 411.783 183.006H406.638ZM428.669 191.532H422.432C422.46 191.112 422.551 190.72 422.705 190.356C422.859 189.978 423.069 189.649 423.335 189.369C423.601 189.089 423.916 188.872 424.28 188.718C424.658 188.55 425.078 188.466 425.54 188.466C425.988 188.466 426.394 188.55 426.758 188.718C427.136 188.872 427.458 189.089 427.724 189.369C428.004 189.635 428.221 189.957 428.375 190.335C428.543 190.713 428.641 191.112 428.669 191.532ZM430.391 194.556H428.627C428.473 195.27 428.151 195.802 427.661 196.152C427.185 196.502 426.569 196.677 425.813 196.677C425.225 196.677 424.714 196.579 424.28 196.383C423.846 196.187 423.489 195.928 423.209 195.606C422.929 195.27 422.726 194.892 422.6 194.472C422.474 194.038 422.418 193.583 422.432 193.107H430.559C430.587 192.449 430.524 191.756 430.37 191.028C430.23 190.3 429.964 189.628 429.572 189.012C429.194 188.396 428.683 187.892 428.039 187.5C427.409 187.094 426.611 186.891 425.645 186.891C424.903 186.891 424.217 187.031 423.587 187.311C422.971 187.591 422.432 187.983 421.97 188.487C421.522 188.991 421.172 189.586 420.92 190.272C420.668 190.958 420.542 191.714 420.542 192.54C420.57 193.366 420.689 194.129 420.899 194.829C421.123 195.529 421.452 196.131 421.886 196.635C422.32 197.139 422.852 197.531 423.482 197.811C424.126 198.091 424.882 198.231 425.75 198.231C426.982 198.231 428.004 197.923 428.816 197.307C429.628 196.691 430.153 195.774 430.391 194.556ZM433.501 194.577H431.716C431.744 195.249 431.884 195.823 432.136 196.299C432.388 196.761 432.724 197.139 433.144 197.433C433.564 197.713 434.047 197.916 434.593 198.042C435.139 198.168 435.713 198.231 436.315 198.231C436.861 198.231 437.407 198.175 437.953 198.063C438.513 197.965 439.01 197.783 439.444 197.517C439.892 197.251 440.249 196.901 440.515 196.467C440.795 196.033 440.935 195.487 440.935 194.829C440.935 194.311 440.83 193.877 440.62 193.527C440.424 193.177 440.158 192.89 439.822 192.666C439.5 192.428 439.122 192.239 438.688 192.099C438.268 191.959 437.834 191.84 437.386 191.742C436.966 191.644 436.546 191.553 436.126 191.469C435.706 191.371 435.328 191.259 434.992 191.133C434.656 190.993 434.376 190.825 434.152 190.629C433.942 190.419 433.837 190.16 433.837 189.852C433.837 189.572 433.907 189.348 434.047 189.18C434.187 188.998 434.369 188.858 434.593 188.76C434.817 188.648 435.062 188.571 435.328 188.529C435.608 188.487 435.881 188.466 436.147 188.466C436.441 188.466 436.728 188.501 437.008 188.571C437.302 188.627 437.568 188.725 437.806 188.865C438.044 189.005 438.24 189.194 438.394 189.432C438.548 189.656 438.639 189.943 438.667 190.293H440.452C440.41 189.635 440.27 189.089 440.032 188.655C439.794 188.207 439.472 187.857 439.066 187.605C438.674 187.339 438.219 187.157 437.701 187.059C437.183 186.947 436.616 186.891 436 186.891C435.524 186.891 435.041 186.954 434.551 187.08C434.075 187.192 433.641 187.374 433.249 187.626C432.871 187.864 432.556 188.179 432.304 188.571C432.066 188.963 431.947 189.432 431.947 189.978C431.947 190.678 432.122 191.224 432.472 191.616C432.822 192.008 433.256 192.316 433.774 192.54C434.306 192.75 434.88 192.918 435.496 193.044C436.112 193.156 436.679 193.289 437.197 193.443C437.729 193.583 438.17 193.772 438.52 194.01C438.87 194.248 439.045 194.598 439.045 195.06C439.045 195.396 438.961 195.676 438.793 195.9C438.625 196.11 438.408 196.271 438.142 196.383C437.89 196.495 437.61 196.572 437.302 196.614C436.994 196.656 436.7 196.677 436.42 196.677C436.056 196.677 435.699 196.642 435.349 196.572C435.013 196.502 434.705 196.39 434.425 196.236C434.159 196.068 433.942 195.851 433.774 195.585C433.606 195.305 433.515 194.969 433.501 194.577ZM444.799 185.19V183.006H443.014V185.19H444.799ZM443.014 187.143V198H444.799V187.143H443.014ZM456.931 197.076V187.143H455.251V188.697H455.23C454.908 188.095 454.46 187.647 453.886 187.353C453.312 187.045 452.682 186.891 451.996 186.891C451.058 186.891 450.267 187.073 449.623 187.437C448.979 187.787 448.461 188.242 448.069 188.802C447.677 189.348 447.397 189.964 447.229 190.65C447.061 191.322 446.977 191.98 446.977 192.624C446.977 193.366 447.075 194.073 447.271 194.745C447.481 195.403 447.789 195.984 448.195 196.488C448.601 196.978 449.105 197.37 449.707 197.664C450.309 197.958 451.016 198.105 451.828 198.105C452.528 198.105 453.186 197.951 453.802 197.643C454.432 197.321 454.901 196.824 455.209 196.152H455.251V196.866C455.251 197.468 455.188 198.021 455.062 198.525C454.95 199.029 454.761 199.456 454.495 199.806C454.229 200.17 453.893 200.45 453.487 200.646C453.081 200.856 452.584 200.961 451.996 200.961C451.702 200.961 451.394 200.926 451.072 200.856C450.75 200.8 450.449 200.702 450.169 200.562C449.903 200.422 449.672 200.24 449.476 200.016C449.294 199.792 449.196 199.519 449.182 199.197H447.397C447.425 199.785 447.579 200.282 447.859 200.688C448.139 201.094 448.489 201.423 448.909 201.675C449.343 201.927 449.819 202.109 450.337 202.221C450.869 202.333 451.387 202.389 451.891 202.389C453.627 202.389 454.901 201.948 455.713 201.066C456.525 200.184 456.931 198.854 456.931 197.076ZM451.933 196.551C451.345 196.551 450.855 196.432 450.463 196.194C450.071 195.942 449.756 195.62 449.518 195.228C449.28 194.822 449.112 194.374 449.014 193.884C448.916 193.394 448.867 192.904 448.867 192.414C448.867 191.896 448.923 191.399 449.035 190.923C449.161 190.447 449.35 190.027 449.602 189.663C449.868 189.299 450.204 189.012 450.61 188.802C451.016 188.578 451.506 188.466 452.08 188.466C452.64 188.466 453.116 188.578 453.508 188.802C453.9 189.026 454.215 189.327 454.453 189.705C454.705 190.069 454.887 190.482 454.999 190.944C455.111 191.406 455.167 191.875 455.167 192.351C455.167 192.855 455.104 193.359 454.978 193.863C454.866 194.367 454.684 194.822 454.432 195.228C454.18 195.62 453.844 195.942 453.424 196.194C453.018 196.432 452.521 196.551 451.933 196.551ZM459.623 187.143V198H461.408V191.868C461.408 191.378 461.471 190.93 461.597 190.524C461.737 190.104 461.94 189.74 462.206 189.432C462.472 189.124 462.801 188.886 463.193 188.718C463.599 188.55 464.075 188.466 464.621 188.466C465.307 188.466 465.846 188.662 466.238 189.054C466.63 189.446 466.826 189.978 466.826 190.65V198H468.611V190.86C468.611 190.272 468.548 189.74 468.422 189.264C468.31 188.774 468.107 188.354 467.813 188.004C467.519 187.654 467.134 187.381 466.658 187.185C466.182 186.989 465.587 186.891 464.873 186.891C463.263 186.891 462.087 187.549 461.345 188.865H461.303V187.143H459.623ZM477.515 183.006V198H479.51V183.006H477.515ZM483.874 192.666C483.874 192.134 483.93 191.616 484.042 191.112C484.154 190.608 484.336 190.16 484.588 189.768C484.84 189.376 485.176 189.061 485.596 188.823C486.016 188.585 486.527 188.466 487.129 188.466C487.745 188.466 488.27 188.585 488.704 188.823C489.138 189.047 489.488 189.348 489.754 189.726C490.034 190.104 490.237 190.545 490.363 191.049C490.489 191.539 490.552 192.05 490.552 192.582C490.552 193.086 490.489 193.583 490.363 194.073C490.251 194.563 490.062 195.004 489.796 195.396C489.53 195.774 489.187 196.082 488.767 196.32C488.347 196.558 487.836 196.677 487.234 196.677C486.66 196.677 486.156 196.565 485.722 196.341C485.302 196.117 484.952 195.816 484.672 195.438C484.406 195.06 484.203 194.633 484.063 194.157C483.937 193.667 483.874 193.17 483.874 192.666ZM492.274 198V183.006H490.489V188.592H490.447C490.251 188.27 490.006 188.004 489.712 187.794C489.432 187.57 489.131 187.395 488.809 187.269C488.487 187.129 488.165 187.031 487.843 186.975C487.521 186.919 487.22 186.891 486.94 186.891C486.114 186.891 485.386 187.045 484.756 187.353C484.14 187.647 483.622 188.053 483.202 188.571C482.796 189.075 482.488 189.67 482.278 190.356C482.082 191.042 481.984 191.77 481.984 192.54C481.984 193.31 482.089 194.038 482.299 194.724C482.509 195.41 482.817 196.012 483.223 196.53C483.643 197.048 484.161 197.461 484.777 197.769C485.407 198.077 486.142 198.231 486.982 198.231C487.738 198.231 488.431 198.098 489.061 197.832C489.691 197.566 490.153 197.132 490.447 196.53H490.489V198H492.274ZM502.559 191.532H496.322C496.35 191.112 496.441 190.72 496.595 190.356C496.749 189.978 496.959 189.649 497.225 189.369C497.491 189.089 497.806 188.872 498.17 188.718C498.548 188.55 498.968 188.466 499.43 188.466C499.878 188.466 500.284 188.55 500.648 188.718C501.026 188.872 501.348 189.089 501.614 189.369C501.894 189.635 502.111 189.957 502.265 190.335C502.433 190.713 502.531 191.112 502.559 191.532ZM504.281 194.556H502.517C502.363 195.27 502.041 195.802 501.551 196.152C501.075 196.502 500.459 196.677 499.703 196.677C499.115 196.677 498.604 196.579 498.17 196.383C497.736 196.187 497.379 195.928 497.099 195.606C496.819 195.27 496.616 194.892 496.49 194.472C496.364 194.038 496.308 193.583 496.322 193.107H504.449C504.477 192.449 504.414 191.756 504.26 191.028C504.12 190.3 503.854 189.628 503.462 189.012C503.084 188.396 502.573 187.892 501.929 187.5C501.299 187.094 500.501 186.891 499.535 186.891C498.793 186.891 498.107 187.031 497.477 187.311C496.861 187.591 496.322 187.983 495.86 188.487C495.412 188.991 495.062 189.586 494.81 190.272C494.558 190.958 494.432 191.714 494.432 192.54C494.46 193.366 494.579 194.129 494.789 194.829C495.013 195.529 495.342 196.131 495.776 196.635C496.21 197.139 496.742 197.531 497.372 197.811C498.016 198.091 498.772 198.231 499.64 198.231C500.872 198.231 501.894 197.923 502.706 197.307C503.518 196.691 504.043 195.774 504.281 194.556ZM515.917 197.958C515.609 198.14 515.182 198.231 514.636 198.231C514.174 198.231 513.803 198.105 513.523 197.853C513.257 197.587 513.124 197.16 513.124 196.572C512.634 197.16 512.06 197.587 511.402 197.853C510.758 198.105 510.058 198.231 509.302 198.231C508.812 198.231 508.343 198.175 507.895 198.063C507.461 197.951 507.083 197.776 506.761 197.538C506.439 197.3 506.18 196.992 505.984 196.614C505.802 196.222 505.711 195.753 505.711 195.207C505.711 194.591 505.816 194.087 506.026 193.695C506.236 193.303 506.509 192.988 506.845 192.75C507.195 192.498 507.587 192.309 508.021 192.183C508.469 192.057 508.924 191.952 509.386 191.868C509.876 191.77 510.338 191.7 510.772 191.658C511.22 191.602 511.612 191.532 511.948 191.448C512.284 191.35 512.55 191.217 512.746 191.049C512.942 190.867 513.04 190.608 513.04 190.272C513.04 189.88 512.963 189.565 512.809 189.327C512.669 189.089 512.48 188.907 512.242 188.781C512.018 188.655 511.759 188.571 511.465 188.529C511.185 188.487 510.905 188.466 510.625 188.466C509.869 188.466 509.239 188.613 508.735 188.907C508.231 189.187 507.958 189.726 507.916 190.524H506.131C506.159 189.852 506.299 189.285 506.551 188.823C506.803 188.361 507.139 187.99 507.559 187.71C507.979 187.416 508.455 187.206 508.987 187.08C509.533 186.954 510.114 186.891 510.73 186.891C511.22 186.891 511.703 186.926 512.179 186.996C512.669 187.066 513.11 187.213 513.502 187.437C513.894 187.647 514.209 187.948 514.447 188.34C514.685 188.732 514.804 189.243 514.804 189.873V195.459C514.804 195.879 514.825 196.187 514.867 196.383C514.923 196.579 515.091 196.677 515.371 196.677C515.525 196.677 515.707 196.642 515.917 196.572V197.958ZM513.019 192.393C512.795 192.561 512.501 192.687 512.137 192.771C511.773 192.841 511.388 192.904 510.982 192.96C510.59 193.002 510.191 193.058 509.785 193.128C509.379 193.184 509.015 193.282 508.693 193.422C508.371 193.562 508.105 193.765 507.895 194.031C507.699 194.283 507.601 194.633 507.601 195.081C507.601 195.375 507.657 195.627 507.769 195.837C507.895 196.033 508.049 196.194 508.231 196.32C508.427 196.446 508.651 196.537 508.903 196.593C509.155 196.649 509.421 196.677 509.701 196.677C510.289 196.677 510.793 196.6 511.213 196.446C511.633 196.278 511.976 196.075 512.242 195.837C512.508 195.585 512.704 195.319 512.83 195.039C512.956 194.745 513.019 194.472 513.019 194.22V192.393ZM520.056 187.143V183.888H518.271V187.143H516.423V188.718H518.271V195.627C518.271 196.131 518.32 196.537 518.418 196.845C518.516 197.153 518.663 197.391 518.859 197.559C519.069 197.727 519.335 197.846 519.657 197.916C519.993 197.972 520.392 198 520.854 198H522.219V196.425H521.4C521.12 196.425 520.889 196.418 520.707 196.404C520.539 196.376 520.406 196.327 520.308 196.257C520.21 196.187 520.14 196.089 520.098 195.963C520.07 195.837 520.056 195.669 520.056 195.459V188.718H522.219V187.143H520.056ZM526.092 185.19V183.006H524.307V185.19H526.092ZM524.307 187.143V198H526.092V187.143H524.307ZM530.16 192.582C530.16 191.924 530.244 191.343 530.412 190.839C530.594 190.321 530.839 189.887 531.147 189.537C531.455 189.187 531.812 188.921 532.218 188.739C532.638 188.557 533.079 188.466 533.541 188.466C534.003 188.466 534.437 188.557 534.843 188.739C535.263 188.921 535.627 189.187 535.935 189.537C536.243 189.887 536.481 190.321 536.649 190.839C536.831 191.343 536.922 191.924 536.922 192.582C536.922 193.24 536.831 193.828 536.649 194.346C536.481 194.85 536.243 195.277 535.935 195.627C535.627 195.963 535.263 196.222 534.843 196.404C534.437 196.586 534.003 196.677 533.541 196.677C533.079 196.677 532.638 196.586 532.218 196.404C531.812 196.222 531.455 195.963 531.147 195.627C530.839 195.277 530.594 194.85 530.412 194.346C530.244 193.828 530.16 193.24 530.16 192.582ZM528.27 192.582C528.27 193.38 528.382 194.122 528.606 194.808C528.83 195.494 529.166 196.096 529.614 196.614C530.062 197.118 530.615 197.517 531.273 197.811C531.931 198.091 532.687 198.231 533.541 198.231C534.409 198.231 535.165 198.091 535.809 197.811C536.467 197.517 537.02 197.118 537.468 196.614C537.916 196.096 538.252 195.494 538.476 194.808C538.7 194.122 538.812 193.38 538.812 192.582C538.812 191.784 538.7 191.042 538.476 190.356C538.252 189.656 537.916 189.054 537.468 188.55C537.02 188.032 536.467 187.626 535.809 187.332C535.165 187.038 534.409 186.891 533.541 186.891C532.687 186.891 531.931 187.038 531.273 187.332C530.615 187.626 530.062 188.032 529.614 188.55C529.166 189.054 528.83 189.656 528.606 190.356C528.382 191.042 528.27 191.784 528.27 192.582ZM540.916 187.143V198H542.701V191.868C542.701 191.378 542.764 190.93 542.89 190.524C543.03 190.104 543.233 189.74 543.499 189.432C543.765 189.124 544.094 188.886 544.486 188.718C544.892 188.55 545.368 188.466 545.914 188.466C546.6 188.466 547.139 188.662 547.531 189.054C547.923 189.446 548.119 189.978 548.119 190.65V198H549.904V190.86C549.904 190.272 549.841 189.74 549.715 189.264C549.603 188.774 549.4 188.354 549.106 188.004C548.812 187.654 548.427 187.381 547.951 187.185C547.475 186.989 546.88 186.891 546.166 186.891C544.556 186.891 543.38 187.549 542.638 188.865H542.596V187.143H540.916ZM562.861 188.781C562.693 188.571 562.525 188.361 562.357 188.151C562.189 187.941 562.035 187.731 561.895 187.521C561.755 187.297 561.636 187.073 561.538 186.849C561.454 186.625 561.412 186.401 561.412 186.177C561.412 185.631 561.594 185.232 561.958 184.98C562.322 184.714 562.714 184.581 563.134 184.581C563.666 184.581 564.086 184.742 564.394 185.064C564.702 185.372 564.856 185.743 564.856 186.177C564.856 186.499 564.793 186.793 564.667 187.059C564.541 187.311 564.38 187.542 564.184 187.752C563.988 187.962 563.771 188.151 563.533 188.319C563.295 188.487 563.071 188.641 562.861 188.781ZM566.704 196.131L568.3 198H570.631L567.712 194.619C567.866 194.283 567.999 193.989 568.111 193.737C568.223 193.471 568.314 193.205 568.384 192.939C568.468 192.673 568.531 192.386 568.573 192.078C568.629 191.756 568.678 191.371 568.72 190.923H567.019C566.977 191.693 566.816 192.47 566.536 193.254L563.827 189.957C564.191 189.747 564.541 189.516 564.877 189.264C565.213 188.998 565.514 188.704 565.78 188.382C566.046 188.06 566.256 187.71 566.41 187.332C566.564 186.94 566.641 186.52 566.641 186.072C566.641 185.568 566.536 185.127 566.326 184.749C566.13 184.357 565.864 184.035 565.528 183.783C565.192 183.517 564.8 183.321 564.352 183.195C563.918 183.069 563.47 183.006 563.008 183.006C562.462 183.006 561.979 183.09 561.559 183.258C561.139 183.426 560.782 183.657 560.488 183.951C560.208 184.231 559.991 184.56 559.837 184.938C559.697 185.302 559.627 185.687 559.627 186.093C559.627 186.471 559.669 186.814 559.753 187.122C559.851 187.416 559.977 187.703 560.131 187.983C560.299 188.249 560.481 188.515 560.677 188.781C560.873 189.047 561.076 189.327 561.286 189.621C560.81 189.873 560.355 190.146 559.921 190.44C559.501 190.72 559.13 191.042 558.808 191.406C558.5 191.756 558.248 192.155 558.052 192.603C557.87 193.051 557.779 193.569 557.779 194.157C557.779 194.465 557.828 194.85 557.926 195.312C558.038 195.774 558.262 196.222 558.598 196.656C558.934 197.09 559.41 197.461 560.026 197.769C560.642 198.077 561.454 198.231 562.462 198.231C563.288 198.231 564.086 198.056 564.856 197.706C565.64 197.356 566.256 196.831 566.704 196.131ZM562.273 190.755L565.717 194.892C565.353 195.438 564.898 195.872 564.352 196.194C563.82 196.516 563.211 196.677 562.525 196.677C562.161 196.677 561.804 196.614 561.454 196.488C561.118 196.362 560.817 196.194 560.551 195.984C560.285 195.76 560.068 195.494 559.9 195.186C559.746 194.864 559.669 194.514 559.669 194.136C559.669 193.688 559.739 193.303 559.879 192.981C560.019 192.645 560.208 192.344 560.446 192.078C560.684 191.812 560.957 191.574 561.265 191.364C561.587 191.154 561.923 190.951 562.273 190.755ZM581.198 184.686V198H583.193V184.686H588.191V183.006H576.2V184.686H581.198ZM594.762 191.532H588.525C588.553 191.112 588.644 190.72 588.798 190.356C588.952 189.978 589.162 189.649 589.428 189.369C589.694 189.089 590.009 188.872 590.373 188.718C590.751 188.55 591.171 188.466 591.633 188.466C592.081 188.466 592.487 188.55 592.851 188.718C593.229 188.872 593.551 189.089 593.817 189.369C594.097 189.635 594.314 189.957 594.468 190.335C594.636 190.713 594.734 191.112 594.762 191.532ZM596.484 194.556H594.72C594.566 195.27 594.244 195.802 593.754 196.152C593.278 196.502 592.662 196.677 591.906 196.677C591.318 196.677 590.807 196.579 590.373 196.383C589.939 196.187 589.582 195.928 589.302 195.606C589.022 195.27 588.819 194.892 588.693 194.472C588.567 194.038 588.511 193.583 588.525 193.107H596.652C596.68 192.449 596.617 191.756 596.463 191.028C596.323 190.3 596.057 189.628 595.665 189.012C595.287 188.396 594.776 187.892 594.132 187.5C593.502 187.094 592.704 186.891 591.738 186.891C590.996 186.891 590.31 187.031 589.68 187.311C589.064 187.591 588.525 187.983 588.063 188.487C587.615 188.991 587.265 189.586 587.013 190.272C586.761 190.958 586.635 191.714 586.635 192.54C586.663 193.366 586.782 194.129 586.992 194.829C587.216 195.529 587.545 196.131 587.979 196.635C588.413 197.139 588.945 197.531 589.575 197.811C590.219 198.091 590.975 198.231 591.843 198.231C593.075 198.231 594.097 197.923 594.909 197.307C595.721 196.691 596.246 195.774 596.484 194.556ZM599.594 194.577H597.809C597.837 195.249 597.977 195.823 598.229 196.299C598.481 196.761 598.817 197.139 599.237 197.433C599.657 197.713 600.14 197.916 600.686 198.042C601.232 198.168 601.806 198.231 602.408 198.231C602.954 198.231 603.5 198.175 604.046 198.063C604.606 197.965 605.103 197.783 605.537 197.517C605.985 197.251 606.342 196.901 606.608 196.467C606.888 196.033 607.028 195.487 607.028 194.829C607.028 194.311 606.923 193.877 606.713 193.527C606.517 193.177 606.251 192.89 605.915 192.666C605.593 192.428 605.215 192.239 604.781 192.099C604.361 191.959 603.927 191.84 603.479 191.742C603.059 191.644 602.639 191.553 602.219 191.469C601.799 191.371 601.421 191.259 601.085 191.133C600.749 190.993 600.469 190.825 600.245 190.629C600.035 190.419 599.93 190.16 599.93 189.852C599.93 189.572 600 189.348 600.14 189.18C600.28 188.998 600.462 188.858 600.686 188.76C600.91 188.648 601.155 188.571 601.421 188.529C601.701 188.487 601.974 188.466 602.24 188.466C602.534 188.466 602.821 188.501 603.101 188.571C603.395 188.627 603.661 188.725 603.899 188.865C604.137 189.005 604.333 189.194 604.487 189.432C604.641 189.656 604.732 189.943 604.76 190.293H606.545C606.503 189.635 606.363 189.089 606.125 188.655C605.887 188.207 605.565 187.857 605.159 187.605C604.767 187.339 604.312 187.157 603.794 187.059C603.276 186.947 602.709 186.891 602.093 186.891C601.617 186.891 601.134 186.954 600.644 187.08C600.168 187.192 599.734 187.374 599.342 187.626C598.964 187.864 598.649 188.179 598.397 188.571C598.159 188.963 598.04 189.432 598.04 189.978C598.04 190.678 598.215 191.224 598.565 191.616C598.915 192.008 599.349 192.316 599.867 192.54C600.399 192.75 600.973 192.918 601.589 193.044C602.205 193.156 602.772 193.289 603.29 193.443C603.822 193.583 604.263 193.772 604.613 194.01C604.963 194.248 605.138 194.598 605.138 195.06C605.138 195.396 605.054 195.676 604.886 195.9C604.718 196.11 604.501 196.271 604.235 196.383C603.983 196.495 603.703 196.572 603.395 196.614C603.087 196.656 602.793 196.677 602.513 196.677C602.149 196.677 601.792 196.642 601.442 196.572C601.106 196.502 600.798 196.39 600.518 196.236C600.252 196.068 600.035 195.851 599.867 195.585C599.699 195.305 599.608 194.969 599.594 194.577ZM611.48 187.143V183.888H609.695V187.143H607.847V188.718H609.695V195.627C609.695 196.131 609.744 196.537 609.842 196.845C609.94 197.153 610.087 197.391 610.283 197.559C610.493 197.727 610.759 197.846 611.081 197.916C611.417 197.972 611.816 198 612.278 198H613.643V196.425H612.824C612.544 196.425 612.313 196.418 612.131 196.404C611.963 196.376 611.83 196.327 611.732 196.257C611.634 196.187 611.564 196.089 611.522 195.963C611.494 195.837 611.48 195.669 611.48 195.459V188.718H613.643V187.143H611.48Z" fill="black"/>
</svg>
