<svg id="7cbe2be2-e4fe-4657-a16d-8a8ea3919481" data-name="圖層 1" xmlns="http://www.w3.org/2000/svg" viewBox="0 0 238 90"><title>tit</title><path d="M63.53,35.35l-.13.6H52.61l.08-.55.49,0a3.08,3.08,0,0,0,2.23-1,5.43,5.43,0,0,0,1.06-2.77L60.05,8.08a4.43,4.43,0,0,0-.22-2.77,2.21,2.21,0,0,0-1.93-1l-.47,0,.08-.55h13.7a11.65,11.65,0,0,1,4,.65,7.8,7.8,0,0,1,2.9,1.8A6.41,6.41,0,0,1,79.77,9a8.47,8.47,0,0,1,.17,3.63,9.22,9.22,0,0,1-1.38,3.65,10.36,10.36,0,0,1-2.74,2.84A12.94,12.94,0,0,1,72,20.93a16.46,16.46,0,0,1-4.7.65H62.43l-1.52,10a4.43,4.43,0,0,0,.22,2.77,2.21,2.21,0,0,0,1.93,1Zm-.89-15.12h4.89a6.92,6.92,0,0,0,5.07-2.1,9.64,9.64,0,0,0,2.63-5.55,8.37,8.37,0,0,0-.65-5.46A3.85,3.85,0,0,0,71,5.07H64.95Z"/><path d="M100.12,23.52h0l-.06-.65a3.72,3.72,0,0,0-1.28-2.68,5.26,5.26,0,0,0-3.24-.83h-5L88.21,34.61h6.65a7.45,7.45,0,0,0,4.28-1.27,13,13,0,0,0,3.58-4l.79-1.25h.32q-.49,1.66-1.1,3.65l-1.09,3.61h0l-.18.65H80.37l.08-.55.49,0a3.08,3.08,0,0,0,2.23-1,5.43,5.43,0,0,0,1.06-2.77L87.82,8.08a4.43,4.43,0,0,0-.22-2.77,2.21,2.21,0,0,0-1.93-1l-.47,0,.08-.55h21.05l-1.2,7.9h-.32l-.17-1.25a6.78,6.78,0,0,0-1.69-4,5.11,5.11,0,0,0-3.71-1.27H92.75l-2,13.08h5a7,7,0,0,0,3.46-.74,5.15,5.15,0,0,0,2.07-2.4l.25-.55h.36l-1.38,9.06Z"/><path d="M135.82,13.63l-.35,0q-.06-.42-.14-.92c-.06-.34-.1-.65-.14-.92a9.45,9.45,0,0,0-2.13-4.65,6,6,0,0,0-3.87-2.15s-.12-.06-.39-.09l-.87-.07-.92,0h-.52a9,9,0,0,0-4.3,1.09,12.43,12.43,0,0,0-3.66,3.05,18.11,18.11,0,0,0-2.78,4.74,26.68,26.68,0,0,0-1.66,6.15,24,24,0,0,0-.22,6.15,13,13,0,0,0,1.34,4.74A7.93,7.93,0,0,0,118,33.71a7.19,7.19,0,0,0,4,1.09,23.31,23.31,0,0,0,3.56-.28,25.1,25.1,0,0,0,3.48-.79l1.31-8.6a4.43,4.43,0,0,0-.22-2.77,2.21,2.21,0,0,0-1.93-1l-.47,0,.08-.56h10.38l-.08.56-.49,0a3.08,3.08,0,0,0-2.23,1,5.42,5.42,0,0,0-1.06,2.77L133,33.27a15.54,15.54,0,0,1-2.4,1.18,21.88,21.88,0,0,1-2.83.9,28.05,28.05,0,0,1-3.06.58,23.13,23.13,0,0,1-3,.21,14.39,14.39,0,0,1-6-1.18,11.08,11.08,0,0,1-4.25-3.3,12.21,12.21,0,0,1-2.27-5.15,19,19,0,0,1-.06-6.67,21.78,21.78,0,0,1,2.1-6.69A18.13,18.13,0,0,1,115,8a16.88,16.88,0,0,1,11.61-4.48,21.35,21.35,0,0,1,2.9.2,23.23,23.23,0,0,1,2.81.56,16.69,16.69,0,0,1,2.52.88,10.55,10.55,0,0,1,2,1.17Z"/><path d="M169,13.63l-.35,0q-.06-.42-.14-.92c-.06-.34-.1-.65-.14-.92a9.45,9.45,0,0,0-2.13-4.65,6,6,0,0,0-3.87-2.15s-.12-.06-.39-.09l-.87-.07-.92,0h-.52a9,9,0,0,0-4.3,1.09,12.43,12.43,0,0,0-3.66,3.05,18.11,18.11,0,0,0-2.78,4.74,26.68,26.68,0,0,0-1.66,6.15,24,24,0,0,0-.22,6.15,13,13,0,0,0,1.34,4.74,7.93,7.93,0,0,0,2.73,3.05,7.19,7.19,0,0,0,4,1.09,23.31,23.31,0,0,0,3.56-.28,25.1,25.1,0,0,0,3.48-.79l1.31-8.6a4.43,4.43,0,0,0-.22-2.77,2.21,2.21,0,0,0-1.93-1l-.47,0,.08-.56h10.38l-.08.56-.49,0a3.08,3.08,0,0,0-2.23,1,5.42,5.42,0,0,0-1.06,2.77l-1.24,8.14a15.54,15.54,0,0,1-2.4,1.18,21.88,21.88,0,0,1-2.83.9,28.05,28.05,0,0,1-3.06.58,23.13,23.13,0,0,1-3,.21,14.39,14.39,0,0,1-6-1.18,11.08,11.08,0,0,1-4.25-3.3,12.21,12.21,0,0,1-2.27-5.15,19,19,0,0,1-.06-6.67,21.78,21.78,0,0,1,2.1-6.69A18.13,18.13,0,0,1,148.2,8a16.88,16.88,0,0,1,11.61-4.48,21.35,21.35,0,0,1,2.9.2,23.23,23.23,0,0,1,2.81.56,16.69,16.69,0,0,1,2.52.88,10.55,10.55,0,0,1,2,1.17Z"/><path d="M181.52,35.91l.22-.65.49,0a3,3,0,0,0,2.07-.86A4.74,4.74,0,0,0,185.35,32l1.46-9.85L181.54,8A8.4,8.4,0,0,0,180,5.21a2.89,2.89,0,0,0-1.89-1l-.31,0,.08-.55h11.22L189,4.2l-.53,0q-1.53.09-1.89,1A4.14,4.14,0,0,0,186.93,8L191.2,19.5l8-11.14q1.4-2.08,1.2-3t-1.94-1l-.63,0,.08-.55h8.43l-.08.55-.45,0a4.76,4.76,0,0,0-2.51,1A13.78,13.78,0,0,0,200.66,8l-9.18,12.53-1.68,11a4.43,4.43,0,0,0,.22,2.77,2.21,2.21,0,0,0,1.93,1l.47,0-.08.55Z"/><path d="M12.6,89.34l-.12.55H2.59l.08-.51.45,0a2.83,2.83,0,0,0,2-.89,5,5,0,0,0,1-2.54L9.41,64.34a4.07,4.07,0,0,0-.2-2.54,2,2,0,0,0-1.77-.89l-.43,0,.08-.51H19.65a10.69,10.69,0,0,1,3.7.59A7.14,7.14,0,0,1,26,62.6a5.88,5.88,0,0,1,1.48,2.56,7.76,7.76,0,0,1,.15,3.33,8.45,8.45,0,0,1-1.26,3.35,9.49,9.49,0,0,1-2.51,2.61,11.87,11.87,0,0,1-3.52,1.67,15.07,15.07,0,0,1-4.31.59H11.59L10.2,85.86a4.05,4.05,0,0,0,.2,2.54,2,2,0,0,0,1.77.89Zm-.82-13.86h4.48a6.35,6.35,0,0,0,4.65-1.92,8.84,8.84,0,0,0,2.41-5.09,7.67,7.67,0,0,0-.6-5,3.53,3.53,0,0,0-3.28-1.88H13.9Z"/><path d="M30.33,75.1A21.28,21.28,0,0,1,32,69.34a17.06,17.06,0,0,1,3.25-4.77A15.12,15.12,0,0,1,40,61.31a14.34,14.34,0,0,1,6-1.21,11.83,11.83,0,0,1,5.58,1.21,9.82,9.82,0,0,1,3.66,3.26A11.81,11.81,0,0,1,57,69.34a18.71,18.71,0,0,1,0,5.76,21.25,21.25,0,0,1-1.72,5.76A17.06,17.06,0,0,1,52,85.63a15.2,15.2,0,0,1-4.65,3.26,14.21,14.21,0,0,1-6,1.21,11.94,11.94,0,0,1-5.6-1.21,9.78,9.78,0,0,1-3.68-3.26,11.79,11.79,0,0,1-1.8-4.77A18.73,18.73,0,0,1,30.33,75.1Zm4.54,0a24.37,24.37,0,0,0-.26,5.3,13.31,13.31,0,0,0,1,4.39,7.15,7.15,0,0,0,2.29,3,5.92,5.92,0,0,0,3.64,1.1,7.42,7.42,0,0,0,4-1.1,11.05,11.05,0,0,0,3.17-3,18.28,18.28,0,0,0,2.3-4.39,26.67,26.67,0,0,0,1.36-5.3,24.31,24.31,0,0,0,.26-5.3,13.67,13.67,0,0,0-1-4.39,7.1,7.1,0,0,0-2.25-3,5.85,5.85,0,0,0-3.62-1.1,7.52,7.52,0,0,0-4,1.1,11.16,11.16,0,0,0-3.2,3,17.89,17.89,0,0,0-2.32,4.39A26.76,26.76,0,0,0,34.87,75.1Z"/><path d="M62.75,60.82l0-.59H75.18a11,11,0,0,1,3.63.55,7.09,7.09,0,0,1,2.62,1.55,5.65,5.65,0,0,1,1.48,2.4,6.86,6.86,0,0,1,.18,3.14,8.1,8.1,0,0,1-2.42,4.73,10.91,10.91,0,0,1-5.08,2.69q.63,1.14,2,3.89T81,85.91l.88,1.65a3.61,3.61,0,0,0,.62.89,1.13,1.13,0,0,0,.66.34,8.83,8.83,0,0,0,1,0l-.14.93H82.58a25.8,25.8,0,0,1-2.66-.11,3.71,3.71,0,0,1-1.66-.55A4.25,4.25,0,0,1,77,87.69q-.58-1-1.42-2.67-1.6-3.18-2.79-5.57t-1.85-3.62H67.46l-1.53,10a4.05,4.05,0,0,0,.2,2.54,2,2,0,0,0,1.77.89l.43,0-.08.51H58.33l.08-.51.45,0a2.83,2.83,0,0,0,2-.89,5,5,0,0,0,1-2.54l3.29-21.57a4.07,4.07,0,0,0-.2-2.54,2,2,0,0,0-1.77-.89Zm9.14,13.77h0a6.21,6.21,0,0,0,4.51-1.83,8.36,8.36,0,0,0,2.34-4.89,7,7,0,0,0-.59-4.68A3.46,3.46,0,0,0,75,61.46H69.57l-2,13.14Z"/><path d="M91.42,68.23l-.43,0q0-.21.3-1.38t.56-2.5l.53-2.38a6.22,6.22,0,0,1,.27-1l.12-.57h23.8l-.05.57q-.14,1.63-.3,3.66t-.3,3.69h-.33L115,65.52a5.59,5.59,0,0,0-1.42-3,4,4,0,0,0-2.88-1h-4.14l-3.71,24.32a4.06,4.06,0,0,0,.2,2.54,2,2,0,0,0,1.77.89l.43,0-.08.51H95.27l.08-.51.45,0a2.83,2.83,0,0,0,2-.89,5,5,0,0,0,1-2.54l3.71-24.32H98.34a5.08,5.08,0,0,0-3.09,1,9,9,0,0,0-2.42,3Z"/><path d="M120.82,60.82v-.47h20.47l-1.1,7.25h-.29l-.16-1.14a6.22,6.22,0,0,0-1.55-3.71,4.68,4.68,0,0,0-3.4-1.17H127.7l-1.86,12.2H130a6.35,6.35,0,0,0,3.16-.68A4.72,4.72,0,0,0,135,70.9l.22-.51h.33l-1.27,8.31H134l-.06-.59a3.4,3.4,0,0,0-1.16-2.46,4.78,4.78,0,0,0-3-.76h-4.14l-1.67,11a3.67,3.67,0,0,0,.27,2.54,2.4,2.4,0,0,0,2,.89l.51,0-.08.51H116.4l.08-.51.45,0a2.82,2.82,0,0,0,2-.89,5,5,0,0,0,1-2.54l3.29-21.57a4.06,4.06,0,0,0-.2-2.54,2,2,0,0,0-1.77-.89Z"/><path d="M142.78,75.1a21.28,21.28,0,0,1,1.72-5.76,17.06,17.06,0,0,1,3.25-4.77,15.12,15.12,0,0,1,4.67-3.26,14.34,14.34,0,0,1,6-1.21A11.83,11.83,0,0,1,164,61.31a9.82,9.82,0,0,1,3.66,3.26,11.81,11.81,0,0,1,1.8,4.77,18.71,18.71,0,0,1,0,5.76,21.25,21.25,0,0,1-1.72,5.76,17.06,17.06,0,0,1-3.25,4.77,15.2,15.2,0,0,1-4.65,3.26,14.21,14.21,0,0,1-6,1.21,11.94,11.94,0,0,1-5.6-1.21,9.78,9.78,0,0,1-3.68-3.26,11.79,11.79,0,0,1-1.8-4.77A18.73,18.73,0,0,1,142.78,75.1Zm4.54,0a24.37,24.37,0,0,0-.26,5.3,13.31,13.31,0,0,0,1,4.39,7.15,7.15,0,0,0,2.29,3,5.92,5.92,0,0,0,3.64,1.1,7.42,7.42,0,0,0,4-1.1,11.05,11.05,0,0,0,3.17-3,18.28,18.28,0,0,0,2.3-4.39,26.67,26.67,0,0,0,1.36-5.3,24.31,24.31,0,0,0,.26-5.3,13.67,13.67,0,0,0-1-4.39,7.1,7.1,0,0,0-2.25-3,5.85,5.85,0,0,0-3.62-1.1,7.52,7.52,0,0,0-4,1.1,11.16,11.16,0,0,0-3.2,3,17.89,17.89,0,0,0-2.32,4.39A26.76,26.76,0,0,0,147.32,75.1Z"/><path d="M191.9,81.92l0,0,.24.08c.15.11.23.2.22.25q-.47,1.61-1,3.5t-1,3.5l-.16.59H170.8l.08-.51.45,0a2.83,2.83,0,0,0,2-.89,5,5,0,0,0,1-2.54l3.29-21.57a4.06,4.06,0,0,0-.2-2.54,2,2,0,0,0-1.77-.89l-.43,0,.08-.51h9.92l-.08.51-.45,0a2.83,2.83,0,0,0-2,.89,5,5,0,0,0-1,2.54L178,88.66h6.48a5.77,5.77,0,0,0,3.48-1.06,10,10,0,0,0,2.73-3.39Z"/><path d="M204.87,89.34l-.08.51h-9.92l.08-.51.45,0a2.82,2.82,0,0,0,2-.89,5,5,0,0,0,1-2.54l3.29-21.57a4.06,4.06,0,0,0-.2-2.54,2,2,0,0,0-1.77-.89l-.43,0,.08-.51h9.92l-.08.51-.45,0a2.83,2.83,0,0,0-2,.89,5,5,0,0,0-1,2.54l-3.29,21.57a4.06,4.06,0,0,0,.2,2.54,2,2,0,0,0,1.77.89Z"/><path d="M210.7,75.1a21.28,21.28,0,0,1,1.72-5.76,17.06,17.06,0,0,1,3.25-4.77,15.12,15.12,0,0,1,4.67-3.26,14.34,14.34,0,0,1,6-1.21,11.83,11.83,0,0,1,5.58,1.21,9.82,9.82,0,0,1,3.66,3.26,11.81,11.81,0,0,1,1.8,4.77,18.71,18.71,0,0,1,0,5.76,21.25,21.25,0,0,1-1.72,5.76,17.06,17.06,0,0,1-3.25,4.77,15.2,15.2,0,0,1-4.65,3.26,14.21,14.21,0,0,1-6,1.21,11.94,11.94,0,0,1-5.6-1.21,9.78,9.78,0,0,1-3.68-3.26,11.79,11.79,0,0,1-1.8-4.77A18.73,18.73,0,0,1,210.7,75.1Zm4.54,0a24.37,24.37,0,0,0-.26,5.3,13.31,13.31,0,0,0,1,4.39,7.15,7.15,0,0,0,2.29,3,5.92,5.92,0,0,0,3.64,1.1,7.42,7.42,0,0,0,4-1.1,11.05,11.05,0,0,0,3.17-3,18.28,18.28,0,0,0,2.3-4.39,26.67,26.67,0,0,0,1.36-5.3,24.31,24.31,0,0,0,.26-5.3,13.67,13.67,0,0,0-1-4.39,7.1,7.1,0,0,0-2.25-3,5.85,5.85,0,0,0-3.62-1.1,7.52,7.52,0,0,0-4,1.1,11.16,11.16,0,0,0-3.2,3,17.89,17.89,0,0,0-2.32,4.39A26.76,26.76,0,0,0,215.24,75.1Z"/></svg>