<svg id="0d625122-26ef-47d2-bcd6-521c1287ccbf" data-name="圖層 1" xmlns="http://www.w3.org/2000/svg" viewBox="0 0 391.89 39.14"><title>tit2</title><path d="M17.06,5.32l-.11.05-.7.05q-3.66.16-3.19,3.74l4,25.1L31.48,4.14h1.44L14.43,42.75H13.09l-6-33.05a7.34,7.34,0,0,0-1.22-3.2A3,3,0,0,0,3.63,5.37l-.44-.05.11-.64H17.17ZM34.4,42.8l-6.06-29,4.57-9.56,5.73,29.53ZM57.61,4.73l-.16.64-.61.05a5.12,5.12,0,0,0-3.06,1.15,9.79,9.79,0,0,0-2.32,3.18L35.79,42.8H34.35L49.77,9.75q1-2.24.62-3.23T47.9,5.42l-1.33-.05.11-.64Z" transform="translate(-3.19 -3.75)"/><path d="M56.92,23.31A25.65,25.65,0,0,1,59.34,16a21.88,21.88,0,0,1,4.49-6A20.65,20.65,0,0,1,78.34,4.41,17,17,0,0,1,85.9,5.93,12.83,12.83,0,0,1,90.82,10a14.06,14.06,0,0,1,2.37,6A21.94,21.94,0,0,1,93,23.31a25.67,25.67,0,0,1-2.42,7.26,21.87,21.87,0,0,1-4.49,6,21,21,0,0,1-6.37,4.11,20.7,20.7,0,0,1-8.09,1.52,17.14,17.14,0,0,1-7.58-1.52,12.78,12.78,0,0,1-4.94-4.11,14,14,0,0,1-2.37-6A21.92,21.92,0,0,1,56.92,23.31Zm6.16,0A28.54,28.54,0,0,0,62.65,30a15.65,15.65,0,0,0,1.26,5.53A9,9,0,0,0,67,39.28a8.39,8.39,0,0,0,4.92,1.39,10.76,10.76,0,0,0,5.39-1.39,14.87,14.87,0,0,0,4.34-3.76A22.86,22.86,0,0,0,84.82,30a32,32,0,0,0,1.92-6.68,28.54,28.54,0,0,0,.43-6.68,16,16,0,0,0-1.24-5.53,8.88,8.88,0,0,0-3-3.76A8.29,8.29,0,0,0,78,6a10.9,10.9,0,0,0-5.41,1.39,15.06,15.06,0,0,0-4.39,3.76A22.42,22.42,0,0,0,65,16.64,32,32,0,0,0,63.08,23.31Z" transform="translate(-3.19 -3.75)"/><path d="M98.66,5.32l0-.75h16.9a15.93,15.93,0,0,1,4.92.69,9.66,9.66,0,0,1,3.53,2,6.94,6.94,0,0,1,2,3,8,8,0,0,1,.2,4,10.13,10.13,0,0,1-3.36,6,15.41,15.41,0,0,1-6.93,3.4q.84,1.44,2.71,4.91t4.52,8.48L124.27,39a4.45,4.45,0,0,0,.82,1.12,1.55,1.55,0,0,0,.89.43,13,13,0,0,0,1.33.05l-.21,1.17h-2q-2.29,0-3.6-.13a5.26,5.26,0,0,1-2.24-.69,5.42,5.42,0,0,1-1.7-1.79q-.78-1.23-1.89-3.36-2.13-4-3.71-7t-2.45-4.57h-4.72l-2.23,12.66a4.76,4.76,0,0,0,.23,3.2,2.77,2.77,0,0,0,2.39,1.12l.59.05-.11.64H92.21l.11-.64.61-.05a4,4,0,0,0,2.78-1.12,6.1,6.1,0,0,0,1.36-3.2l4.79-27.18a4.77,4.77,0,0,0-.23-3.2,2.78,2.78,0,0,0-2.39-1.12Zm12.2,17.35h0a8.88,8.88,0,0,0,6.15-2.3,10.41,10.41,0,0,0,3.25-6.16,8.22,8.22,0,0,0-.73-5.89,4.72,4.72,0,0,0-4.31-2.2h-7.35L105,22.67Z" transform="translate(-3.19 -3.75)"/><path d="M167.75,4.67l.15.59-.66.05a9.57,9.57,0,0,0-3.66,1,20.92,20.92,0,0,0-4.13,2.83L148.4,18.88q.75,1.39,2.35,4.27T154.63,30q1.7,3,3,5.13a30.27,30.27,0,0,0,2.46,3.36,9.36,9.36,0,0,0,2.08,1.87,3.73,3.73,0,0,0,2,.59L164,42.16H162a15.45,15.45,0,0,1-3.78-.43,10.38,10.38,0,0,1-3.16-1.39,13,13,0,0,1-2.77-2.48,23.65,23.65,0,0,1-2.51-3.66q-.84-1.44-1.92-3.36t-2.07-3.63q-1.13-2-2.36-4.11l-.68-1.23-2.65,15a4.76,4.76,0,0,0,.23,3.2,2.77,2.77,0,0,0,2.39,1.12l.59.05-.11.64H129.78l.11-.64.61-.05a4,4,0,0,0,2.78-1.12,6.1,6.1,0,0,0,1.36-3.2l4.79-27.18a4.77,4.77,0,0,0-.23-3.2,2.78,2.78,0,0,0-2.39-1.12l-.59-.05.11-.64h13.47l-.11.64-.61.05a4,4,0,0,0-2.78,1.12,6.1,6.1,0,0,0-1.36,3.2L142.8,21.87l14.66-13q3.67-3.36,1.17-3.52l-.44-.05.11-.64Z" transform="translate(-3.19 -3.75)"/><path d="M192.5,15.89l-.44-.05q-.17-1-.38-2.22t-.43-2.22A7,7,0,0,0,189.73,8a5.15,5.15,0,0,0-2.82-1.79s-.11-.07-.35-.11L185.73,6l-1.3-.11a9,9,0,0,0-5.87,2,8.55,8.55,0,0,0-3,5.31,3.49,3.49,0,0,0,.34,2.16,7,7,0,0,0,1.64,2.11,13,13,0,0,0,2.82,1.9,26,26,0,0,0,3.82,1.58,13.12,13.12,0,0,1,3.64,1.74,10.66,10.66,0,0,1,2.59,2.51,8.87,8.87,0,0,1,1.43,3,8,8,0,0,1,.1,3.39,12.28,12.28,0,0,1-4.59,7.69,13.27,13.27,0,0,1-4.08,2.14,15.79,15.79,0,0,1-4.93.75A30.49,30.49,0,0,1,175,42a27.71,27.71,0,0,1-3.19-.53,18.21,18.21,0,0,1-2.76-.85,12.24,12.24,0,0,1-2.14-1.09l1.56-8.86h.45q.07.48.16,1.07t.16,1.07a10.06,10.06,0,0,0,2.64,5.34,7.56,7.56,0,0,0,4.84,2.4l.88.08.64,0h.35a9.78,9.78,0,0,0,6-1.82,7.38,7.38,0,0,0,3-4.81,4.25,4.25,0,0,0-.29-2.43,7.13,7.13,0,0,0-1.63-2.3,13,13,0,0,0-2.82-2A22.39,22.39,0,0,0,179,25.59a14.42,14.42,0,0,1-3.6-1.69,10.58,10.58,0,0,1-2.59-2.35,7.82,7.82,0,0,1-1.41-2.86,7.4,7.4,0,0,1-.11-3.16,13.86,13.86,0,0,1,1.66-4.6A12.88,12.88,0,0,1,180,5.1a14.91,14.91,0,0,1,4.94-.8,17.3,17.3,0,0,1,4.94.74,14,14,0,0,1,4.22,2Z" transform="translate(-3.19 -3.75)"/><path d="M218.44,16a9.28,9.28,0,0,1-.12-3.68,10.37,10.37,0,0,1,3.4-6.14,9.68,9.68,0,0,1,6.65-2.44q3.7,0,5.38,2.27a6.75,6.75,0,0,1,1.13,5.42,12.21,12.21,0,0,1-3.29,6.44,26.79,26.79,0,0,1-4.86,3.73l5,8.35q1-2.09,1.44-3.11t1-2.88h4.15A35.34,35.34,0,0,1,235.47,31q-1.83,3.38-1.71,2.72L238.62,42H233l-2.56-4.38A23.23,23.23,0,0,1,226.21,41a13.53,13.53,0,0,1-7,1.88q-5.54,0-7.48-3.22a10.17,10.17,0,0,1-1.23-7.26,13.15,13.15,0,0,1,3.73-7.27,34.8,34.8,0,0,1,6.37-4.43A15.87,15.87,0,0,1,218.44,16Zm6.71,21.43a13.52,13.52,0,0,0,3.5-3l-6.17-10.56a32.06,32.06,0,0,0-5.1,3.75,8.78,8.78,0,0,0-2.43,4.77,4.84,4.84,0,0,0,1.24,4.69,5.88,5.88,0,0,0,4.12,1.64A9.09,9.09,0,0,0,225.15,37.44Zm3.48-21.71a7.42,7.42,0,0,0,2.11-3.93,3.84,3.84,0,0,0-.52-2.91,2.89,2.89,0,0,0-2.58-1.22,4.66,4.66,0,0,0-4.05,1.93,5.24,5.24,0,0,0-.91,2.16,5.63,5.63,0,0,0,.28,3,22.06,22.06,0,0,0,2,3.77A24.26,24.26,0,0,0,228.64,15.73Z" transform="translate(-3.19 -3.75)"/><path d="M282.6,15.89l-.44-.05q-.17-1-.38-2.22t-.43-2.22A7,7,0,0,0,279.82,8,5.15,5.15,0,0,0,277,6.17s-.11-.07-.35-.11L275.83,6l-1.3-.11a9,9,0,0,0-5.87,2,8.55,8.55,0,0,0-3,5.31,3.49,3.49,0,0,0,.34,2.16,7,7,0,0,0,1.64,2.11,13,13,0,0,0,2.82,1.9,26,26,0,0,0,3.82,1.58,13.12,13.12,0,0,1,3.64,1.74,10.66,10.66,0,0,1,2.59,2.51,8.87,8.87,0,0,1,1.43,3,8,8,0,0,1,.1,3.39,12.28,12.28,0,0,1-4.59,7.69,13.27,13.27,0,0,1-4.08,2.14,15.79,15.79,0,0,1-4.93.75,30.49,30.49,0,0,1-3.37-.19,27.71,27.71,0,0,1-3.19-.53,18.21,18.21,0,0,1-2.76-.85A12.24,12.24,0,0,1,257,39.49l1.56-8.86H259q.07.48.16,1.07t.16,1.07a10.06,10.06,0,0,0,2.64,5.34,7.56,7.56,0,0,0,4.84,2.4l.88.08.64,0h.35a9.78,9.78,0,0,0,6-1.82,7.38,7.38,0,0,0,3-4.81,4.25,4.25,0,0,0-.29-2.43,7.13,7.13,0,0,0-1.63-2.3,13,13,0,0,0-2.82-2,22.39,22.39,0,0,0-3.81-1.63,14.42,14.42,0,0,1-3.6-1.69,10.58,10.58,0,0,1-2.59-2.35,7.82,7.82,0,0,1-1.41-2.86,7.4,7.4,0,0,1-.11-3.16,13.86,13.86,0,0,1,1.66-4.6,12.88,12.88,0,0,1,7.07-5.83A14.91,14.91,0,0,1,275,4.3a17.3,17.3,0,0,1,4.94.74,14,14,0,0,1,4.22,2Z" transform="translate(-3.19 -3.75)"/><path d="M320.71,4.67l.15.59-.66.05a9.57,9.57,0,0,0-3.66,1,20.92,20.92,0,0,0-4.13,2.83l-11.06,9.72q.75,1.39,2.35,4.27T307.59,30q1.7,3,3,5.13a30.27,30.27,0,0,0,2.46,3.36,9.36,9.36,0,0,0,2.08,1.87,3.73,3.73,0,0,0,2,.59l-.21,1.17H315a15.45,15.45,0,0,1-3.78-.43,10.38,10.38,0,0,1-3.16-1.39,13,13,0,0,1-2.77-2.48,23.65,23.65,0,0,1-2.51-3.66q-.84-1.44-1.92-3.36t-2.07-3.63q-1.13-2-2.36-4.11l-.68-1.23-2.65,15a4.76,4.76,0,0,0,.23,3.2,2.77,2.77,0,0,0,2.39,1.12l.59.05-.11.64H282.74l.11-.64.61-.05a4,4,0,0,0,2.78-1.12,6.1,6.1,0,0,0,1.36-3.2l4.79-27.18a4.77,4.77,0,0,0-.23-3.2,2.78,2.78,0,0,0-2.39-1.12l-.59-.05.11-.64h13.47l-.11.64-.61.05a4,4,0,0,0-2.78,1.12,6.1,6.1,0,0,0-1.36,3.2l-2.15,12.17,14.66-13q3.67-3.36,1.17-3.52l-.44-.05.11-.64Z" transform="translate(-3.19 -3.75)"/><path d="M332.94,41.25l-.11.64H319.36l.11-.64.61-.05a4,4,0,0,0,2.78-1.12,6.1,6.1,0,0,0,1.36-3.2L329,9.69a4.77,4.77,0,0,0-.23-3.2,2.78,2.78,0,0,0-2.39-1.12l-.59-.05.11-.64h13.47l-.11.64-.61.05a4,4,0,0,0-2.78,1.12,6.1,6.1,0,0,0-1.36,3.2l-4.79,27.18a4.76,4.76,0,0,0,.23,3.2,2.77,2.77,0,0,0,2.39,1.12Z" transform="translate(-3.19 -3.75)"/><path d="M364.16,31.91l0,.05.33.11c.21.14.3.25.29.32q-.66,2-1.47,4.41t-1.47,4.41l-.23.75H335.4l.11-.64.61-.05a4,4,0,0,0,2.78-1.12,6.1,6.1,0,0,0,1.36-3.2l4.79-27.18a4.77,4.77,0,0,0-.23-3.2,2.78,2.78,0,0,0-2.39-1.12l-.59-.05.11-.64h13.47l-.11.64-.61.05a4,4,0,0,0-2.78,1.12,6.1,6.1,0,0,0-1.36,3.2l-5.4,30.65H354a8.32,8.32,0,0,0,4.73-1.34,13.11,13.11,0,0,0,3.76-4.27Z" transform="translate(-3.19 -3.75)"/><path d="M394.42,31.91l0,.05.33.11c.21.14.3.25.29.32q-.66,2-1.47,4.41t-1.47,4.41l-.23.75H365.67l.11-.64.61-.05a4,4,0,0,0,2.78-1.12,6.1,6.1,0,0,0,1.36-3.2l4.79-27.18a4.77,4.77,0,0,0-.23-3.2,2.78,2.78,0,0,0-2.39-1.12l-.59-.05.11-.64H385.7l-.11.64-.61.05a4,4,0,0,0-2.78,1.12,6.1,6.1,0,0,0-1.36,3.2l-5.4,30.65h8.8A8.32,8.32,0,0,0,389,39.06a13.11,13.11,0,0,0,3.76-4.27Z" transform="translate(-3.19 -3.75)"/></svg>