<svg id="6f230ef0-7d69-49ba-8195-0f486bf80cc1" data-name="圖層 1" xmlns="http://www.w3.org/2000/svg" viewBox="0 0 191.74 38.39"><title>tit3</title><path d="M2.62,41.89l.11-.64.66-.05Q6.7,41,8.76,37.46L26.42,3.82h1.36l8.16,33.05a7.39,7.39,0,0,0,1.67,3.47,4.13,4.13,0,0,0,2.9.91l-.11.64h-15l.11-.64,1.32-.05a3.44,3.44,0,0,0,2.78-1.09,4.2,4.2,0,0,0,.21-3.23l-1.88-8.12H15l-3.9,7.64Q9.89,38.85,10.43,40t2.95,1.23l.85.05-.11.64ZM27.52,27.21l-3.64-15.7-8.06,15.7Z" transform="translate(-2.62 -3.82)"/><path d="M49,5.31l.11-.64H66.28a17.94,17.94,0,0,1,4.92.61A10,10,0,0,1,74.77,7a6.49,6.49,0,0,1,2,2.74,6.71,6.71,0,0,1,.29,3.57,8.56,8.56,0,0,1-3.18,5.32,15.91,15.91,0,0,1-6.85,3.09q5.17.75,7.86,3.37A6.9,6.9,0,0,1,77,31.56a10.56,10.56,0,0,1-1.69,4.23A11.8,11.8,0,0,1,72,39.06a16.8,16.8,0,0,1-4.71,2.09,21.43,21.43,0,0,1-5.8.75H42.93l.11-.64.61-.05a4.06,4.06,0,0,0,2.81-1.12,6,6,0,0,0,1.34-3.2L52.33,9.69a4.72,4.72,0,0,0-.27-3.2,2.88,2.88,0,0,0-2.44-1.12Zm3.9,35,8.28-.05a9.55,9.55,0,0,0,6.5-2.37,10.4,10.4,0,0,0,3.38-6.36A7.45,7.45,0,0,0,70.88,28,6.25,6.25,0,0,0,69,25.2a8.83,8.83,0,0,0-3.29-1.76,15.56,15.56,0,0,0-4.56-.61H55.84ZM56,21.44h6a9.26,9.26,0,0,0,9.44-8,6.53,6.53,0,0,0-1-5.21,5.27,5.27,0,0,0-4.48-2H58.56Z" transform="translate(-2.62 -3.82)"/><path d="M80.88,23.31A25.12,25.12,0,0,1,83.25,16a21.53,21.53,0,0,1,4.48-6,21,21,0,0,1,6.44-4.11,21.34,21.34,0,0,1,8.22-1.52,17.57,17.57,0,0,1,7.69,1.52,13.2,13.2,0,0,1,5,4.11,14.13,14.13,0,0,1,2.48,6,21.62,21.62,0,0,1,0,7.26,25.15,25.15,0,0,1-2.37,7.26,21.56,21.56,0,0,1-4.48,6A20.75,20.75,0,0,1,96.1,42.21a17.76,17.76,0,0,1-7.72-1.52,13.17,13.17,0,0,1-5.07-4.11,14.11,14.11,0,0,1-2.48-6A21.58,21.58,0,0,1,80.88,23.31Zm6.25,0A28.12,28.12,0,0,0,86.78,30a15.61,15.61,0,0,0,1.35,5.53,9.16,9.16,0,0,0,3.16,3.77,8.7,8.7,0,0,0,5,1.39,11,11,0,0,0,5.45-1.39,14.78,14.78,0,0,0,4.36-3.77A22.44,22.44,0,0,0,109.28,30a31.25,31.25,0,0,0,1.87-6.67,28,28,0,0,0,.35-6.68,16,16,0,0,0-1.32-5.53,9.08,9.08,0,0,0-3.11-3.76,8.58,8.58,0,0,0-5-1.39,11.1,11.1,0,0,0-5.48,1.39,14.94,14.94,0,0,0-4.41,3.76A22,22,0,0,0,89,16.64,31.38,31.38,0,0,0,87.14,23.31Z" transform="translate(-2.62 -3.82)"/><path d="M158.35,4.67l-.06.64-.71.05a4.44,4.44,0,0,0-3.14,1.28,6.88,6.88,0,0,0-1.51,3.63l-3.5,21a14.51,14.51,0,0,1-1.47,4.46,10.71,10.71,0,0,1-2.87,3.42,13,13,0,0,1-4.43,2.19,21.88,21.88,0,0,1-6.16.77,17.56,17.56,0,0,1-6.1-.91,8.89,8.89,0,0,1-3.79-2.54,8,8,0,0,1-1.74-4,16.05,16.05,0,0,1,.1-5.15l3.32-19.92a4.72,4.72,0,0,0-.27-3.2,2.88,2.88,0,0,0-2.44-1.12l-.6-.05.11-.64h13.67l-.11.64-.61.05a4.07,4.07,0,0,0-2.81,1.12,6,6,0,0,0-1.34,3.2l-3.51,21.09q-.7,4.22.91,6.78t6.36,2.56a16,16,0,0,0,5-.69,10.69,10.69,0,0,0,3.57-1.92,9.2,9.2,0,0,0,2.33-3,13.58,13.58,0,0,0,1.23-3.87l3.4-20.4a5.2,5.2,0,0,0-.35-3.63,3.38,3.38,0,0,0-2.86-1.28l-.75-.05.11-.64Z" transform="translate(-2.62 -3.82)"/><path d="M159.71,14.66l-.6-.05q0-.27.42-1.74t.78-3.15l.73-3a7.41,7.41,0,0,1,.37-1.32l.17-.72h32.79l-.07.72q-.19,2.06-.42,4.62t-.42,4.65H193l-.79-3.42a6.82,6.82,0,0,0-2-3.82,5.88,5.88,0,0,0-4-1.2h-5.7l-5.11,30.65a4.71,4.71,0,0,0,.27,3.2,2.87,2.87,0,0,0,2.44,1.12l.6.05-.11.64H165l.11-.64.61-.05a4.07,4.07,0,0,0,2.81-1.12,6,6,0,0,0,1.34-3.2L175,6.22h-5.75A7.46,7.46,0,0,0,165,7.42a11.59,11.59,0,0,0-3.34,3.82Z" transform="translate(-2.62 -3.82)"/></svg>