<svg id="e1c1aed3-817a-4abf-8a0b-a69077f87e4c" data-name="圖層 1" xmlns="http://www.w3.org/2000/svg" viewBox="0 0 266.61 39.2"><title>tit4</title><path d="M39.71,17.46l-.06.05q-.07-.48-.17-1.07t-.17-1.07a10.14,10.14,0,0,0-2.66-5.31,8.42,8.42,0,0,0-4.89-2.54s-.18-.07-.57-.11-.82-.06-1.31-.08l-1.39-.05-.76,0A13.56,13.56,0,0,0,22,8.52,15.87,15.87,0,0,0,17.11,12a21,21,0,0,0-3.69,5.47,27.23,27.23,0,0,0-2.22,7.09,23.71,23.71,0,0,0-.28,7.09,13.88,13.88,0,0,0,1.77,5.46,9.54,9.54,0,0,0,3.64,3.52,10.82,10.82,0,0,0,5.29,1.25h.92a8.18,8.18,0,0,0,.93-.05,14.1,14.1,0,0,0,3.78-.75,16.45,16.45,0,0,0,3.51-1.68,16.14,16.14,0,0,0,3-2.48,14.67,14.67,0,0,0,2.28-3.1q.24-.48.55-1.07l.55-1.07h.46l-1.48,8.38A20.86,20.86,0,0,1,33,41.47a32.75,32.75,0,0,1-3.68,1.06,39,39,0,0,1-4,.69,33.45,33.45,0,0,1-4,.25,21,21,0,0,1-7.85-1.36,14.22,14.22,0,0,1-5.55-3.82,13.55,13.55,0,0,1-3-6,19.24,19.24,0,0,1-.07-7.73,23.07,23.07,0,0,1,2.8-7.75,21.92,21.92,0,0,1,5.05-5.94,22.66,22.66,0,0,1,6.9-3.82A25,25,0,0,1,28,5.72,31.5,31.5,0,0,1,31.91,6a32.74,32.74,0,0,1,3.76.69A24,24,0,0,1,39,7.71,14,14,0,0,1,41.6,9.08l-1.48,8.38Z" transform="translate(-4.56 -5.18)"/><path d="M41.4,24.67a25.06,25.06,0,0,1,2.45-7.26,21.79,21.79,0,0,1,4.58-6A21.46,21.46,0,0,1,55,7.29a21.92,21.92,0,0,1,8.33-1.52,17.9,17.9,0,0,1,7.77,1.52,13.2,13.2,0,0,1,5.07,4.11,13.94,13.94,0,0,1,2.46,6,21.39,21.39,0,0,1-.11,7.26,25.11,25.11,0,0,1-2.45,7.26,21.79,21.79,0,0,1-4.58,6,21.3,21.3,0,0,1-14.83,5.63,18.07,18.07,0,0,1-7.8-1.52,13.13,13.13,0,0,1-5.1-4.11,13.91,13.91,0,0,1-2.46-6A21.34,21.34,0,0,1,41.4,24.67Zm6.33,0a27.77,27.77,0,0,0-.41,6.67,15.37,15.37,0,0,0,1.32,5.53,9.09,9.09,0,0,0,3.17,3.76A8.83,8.83,0,0,0,56.88,42a11.25,11.25,0,0,0,5.53-1.39,15,15,0,0,0,4.44-3.76,22.56,22.56,0,0,0,3.25-5.53A31.2,31.2,0,0,0,72,24.67,27.77,27.77,0,0,0,72.45,18a15.72,15.72,0,0,0-1.3-5.53A9,9,0,0,0,68,8.71a8.71,8.71,0,0,0-5-1.39,11.4,11.4,0,0,0-5.55,1.39,15.26,15.26,0,0,0-4.49,3.76A22.16,22.16,0,0,0,49.68,18,31.21,31.21,0,0,0,47.73,24.67Z" transform="translate(-4.56 -5.18)"/><path d="M84.14,6.68,84.2,6h9.24l15.74,28.57,4.15-23.55a4.66,4.66,0,0,0-.25-3.2,2.9,2.9,0,0,0-2.46-1.12l-.6-.05.11-.64h9.8l-.11.64-.62.05a4.18,4.18,0,0,0-2.85,1.12,6,6,0,0,0-1.38,3.2L109.1,44.38h-1.74Q102.81,36,98.24,27.8L89.06,11.22l-4.76,27a4.65,4.65,0,0,0,.25,3.2A2.89,2.89,0,0,0,87,42.56l.6.05-.11.64h-9.8l.11-.64.62-.05a4.17,4.17,0,0,0,2.85-1.12,6,6,0,0,0,1.38-3.2l4.79-27.18a4.66,4.66,0,0,0-.25-3.2,2.9,2.9,0,0,0-2.46-1.12Z" transform="translate(-4.56 -5.18)"/><path d="M121.3,16l-.6-.05q0-.27.43-1.74t.81-3.15l.76-3a7.17,7.17,0,0,1,.39-1.32l.18-.72h33.18l-.08.72q-.21,2.06-.46,4.62T155.45,16H155l-.78-3.42a6.74,6.74,0,0,0-2-3.82,6,6,0,0,0-4-1.2h-5.77l-5.4,30.65a4.65,4.65,0,0,0,.25,3.2,2.89,2.89,0,0,0,2.46,1.12l.6.05-.11.64H126.45l.11-.64.62-.05A4.17,4.17,0,0,0,130,41.44a6,6,0,0,0,1.38-3.2l5.4-30.65H131a7.67,7.67,0,0,0-4.32,1.2,11.77,11.77,0,0,0-3.4,3.82Z" transform="translate(-4.56 -5.18)"/><path d="M153.35,43.26l.11-.64.67-.05q3.35-.16,5.46-3.74L177.73,5.18h1.38l8,33.05a7.29,7.29,0,0,0,1.66,3.47,4.19,4.19,0,0,0,2.93.91l-.11.64H176.38l.11-.64,1.34-.05a3.53,3.53,0,0,0,2.82-1.09,4.16,4.16,0,0,0,.24-3.23l-1.84-8.12H166l-4,7.64q-1.25,2.46-.71,3.58t3,1.23l.86.05-.11.64Zm25.31-14.69-3.56-15.7-8.28,15.7Z" transform="translate(-4.56 -5.18)"/><path d="M232.29,17.46l-.06.05q-.07-.48-.17-1.07t-.17-1.07a10.14,10.14,0,0,0-2.66-5.31,8.42,8.42,0,0,0-4.89-2.54s-.18-.07-.57-.11-.82-.06-1.31-.08l-1.39-.05-.76,0a13.56,13.56,0,0,0-5.73,1.25A15.87,15.87,0,0,0,209.68,12,21,21,0,0,0,206,17.5a27.23,27.23,0,0,0-2.22,7.09,23.71,23.71,0,0,0-.28,7.09,13.88,13.88,0,0,0,1.77,5.46,9.54,9.54,0,0,0,3.64,3.52,10.82,10.82,0,0,0,5.29,1.25h.92a8.18,8.18,0,0,0,.93-.05,14.1,14.1,0,0,0,3.78-.75,16.45,16.45,0,0,0,3.51-1.68,16.14,16.14,0,0,0,3-2.48,14.67,14.67,0,0,0,2.28-3.1q.24-.48.55-1.07l.55-1.07h.46l-1.48,8.38a20.86,20.86,0,0,1-3.1,1.37,32.75,32.75,0,0,1-3.68,1.06,39,39,0,0,1-4,.69,33.45,33.45,0,0,1-4,.25,21,21,0,0,1-7.85-1.36,14.22,14.22,0,0,1-5.55-3.82,13.55,13.55,0,0,1-3-6,19.24,19.24,0,0,1-.07-7.73,23.07,23.07,0,0,1,2.8-7.75,21.92,21.92,0,0,1,5.05-5.94,22.66,22.66,0,0,1,6.9-3.82,25,25,0,0,1,8.33-1.36,31.5,31.5,0,0,1,3.91.25,32.74,32.74,0,0,1,3.76.69,24,24,0,0,1,3.31,1.06,14,14,0,0,1,2.62,1.37l-1.48,8.38Z" transform="translate(-4.56 -5.18)"/><path d="M236,16l-.6-.05q0-.27.43-1.74t.81-3.15l.76-3a7.17,7.17,0,0,1,.39-1.32L238,6h33.18l-.08.72q-.21,2.06-.46,4.62T270.17,16h-.46l-.78-3.42a6.74,6.74,0,0,0-2-3.82,6,6,0,0,0-4-1.2h-5.77l-5.4,30.65a4.65,4.65,0,0,0,.25,3.2,2.89,2.89,0,0,0,2.46,1.12l.6.05-.11.64H241.17l.11-.64.62-.05a4.17,4.17,0,0,0,2.85-1.12,6,6,0,0,0,1.38-3.2l5.4-30.65h-5.82a7.67,7.67,0,0,0-4.32,1.2A11.77,11.77,0,0,0,238,12.6Z" transform="translate(-4.56 -5.18)"/></svg>