<svg xmlns="http://www.w3.org/2000/svg" width="18" height="15.272" viewBox="0 0 18 15.272">
  <path id="wordpress" d="M17.735,37.184q-.042-.124-.092-.244a2.071,2.071,0,0,0-.65-.9c-1.385-1.018-3.847-.182-3.847,1.671a3.609,3.609,0,0,0,.628,1.7c.125.221.254.45.366.683l.123.252a3.565,3.565,0,0,1,.487,1.854,4.976,4.976,0,0,1-.213,1.27l-.01.025-1.068,3.174-2.768-7.8c.08-.012.16-.021.24-.034a.962.962,0,0,0-.029-1.923.364.364,0,0,0-.053,0,11.365,11.365,0,0,1-3.742,0,.358.358,0,0,0-.053,0,.962.962,0,0,0-.029,1.923c.111.018.222.033.333.048l1.279,3.325L7.045,46.925,4.157,38.844l.046-.008a.962.962,0,0,0-.035-1.923.32.32,0,0,0-.063.006,7.819,7.819,0,0,1-3.08,0,.321.321,0,0,0-.063-.006.961.961,0,0,0-.049,1.921L4.836,49.6a1.92,1.92,0,0,0,3.629-.037l1.806-5.417,1.938,5.436a1.52,1.52,0,0,0,.843.882,1.215,1.215,0,0,0,.981-.064,1.515,1.515,0,0,0,.876-.928l2.383-7.108A7.977,7.977,0,0,0,17.735,37.184Z" transform="translate(0 -35.604)" fill="#666"/>
</svg>
